<mxfile host="Electron" modified="2024-01-16T20:39:36.175Z" agent="Mozilla/5.0 (Windows NT 10.0; Win64; x64) AppleWebKit/537.36 (KHTML, like Gecko) draw.io/22.1.16 Chrome/120.0.6099.109 Electron/28.1.0 Safari/537.36" etag="MaJ_ieIKV-KW2jy7T0OJ" version="22.1.16" type="device">
  <diagram name="Seite-1" id="RjynOeafBO-yNT-dzrrl">
    <mxGraphModel dx="1687" dy="984" grid="1" gridSize="10" guides="1" tooltips="1" connect="1" arrows="1" fold="1" page="1" pageScale="1" pageWidth="827" pageHeight="1169" math="0" shadow="0">
      <root>
        <mxCell id="0" />
        <mxCell id="1" parent="0" />
        <mxCell id="MLQxSJ3YGCdLaZxHPDDz-1" value="" style="shape=image;verticalLabelPosition=bottom;labelBackgroundColor=default;verticalAlign=top;aspect=fixed;imageAspect=0;image=data:image/png,iVBORw0KGgoAAAANSUhEUgAABFIAAALECAYAAAArVRRuAAAAAXNSR0IArs4c6QAAAARnQU1BAACxjwv8YQUAAAAJcEhZcwAADsMAAA7DAcdvqGQAAPpVSURBVHhe7N0LfFTVvff/XwKSRCAX7gGEcBEQVPCCxDte8drTVq1WyqU97TmoBUHp41F42uoDtX2Kl4qX3iv6tJ4C9ulT9SharYL/AvUoKPUSFCWA3AJJkFuiYv7zXbN3mIQksyczmSQznzevYe+Z2ZnZs9Zvr7322muvnfH1SVNr3n7zDasrw76oybBD1tFqaryXALRbmRmhh30emmqDDm/Un332mZumo6OOOsqbAwAAAIDYZPzsoZ/XPPLIr72nAAAAAAAAaExmzx4F3iwAAAAAAACaktnBmwEAAAAAAEDTMhkCBQAAAAAAIJhMbwoAAAAAAIAo6JECAAAAAAAQED1SAAAAAAAAAsrM8GYAAAAAAADQtMyqzw55swAAAAAAAGhK5vbtO7xZAAAAAAAANCVz8+ZN3iwAAAAAAACakrlj505vFgAAAAAAAE3JmHD5l2pKS7d6TxNj+PDhNn/eD23b9h02Y8Ysq6nhJssTJlxk0797k/fM7OVXltuCBfd6z1rf7Nm32OgTT7SCgnz3fN78H9uqVavcfDpq6/kFAAAAAGgdmVXVVd5s0xYuvN+efurPtY/HH3vU5s+7y3r06OEtUVd2do5lZ2V7z/D662ts4YMPuUc0atRQGmdkJOeeSnPn3m7jzz3HKvdUugYDPT744APv3fQUS34BAAAAANJHZmZGpjcbXUXF4QPtnTt32OjRJ9oPfjDXe/ewkpISu3X2bXb7HXPpjeLZtWuXLVv2gnu0tTQZE8rHjzZutOnTZ7peF3pofdNZZH4BAAAAAODLuHDC5TVbPo5+5x71SJHIS3XUk6F43DjXaKLGE/WkUM8Gnw7O61/a43/Ojh073N/KqtWrbd68u9286NKg7373BhtUVGRVVQft6WeetSsuvzS03GuBL6+IvDRD67bun2+7z1BPmfrfp/UuHjfWvafGor/85SlbsvRJ711zvW6mTp1c59IXWfrkn+zRRx9z80/95f/axtJS1xgh/verR0P9g3Et+8ryFUf8lvrpFyny0pIg6xML9X6J/Pz6Zt8aSp/ihtMnlnSOJmi+R8svaWqdJZYYi5o+AdYniGuuvsouvvgiKyzs454rPZcs/b91LrFq6rv8vFC6a9vS31dUVrr5hvLixhun2WWXXmKLFj3erPUFAAAAgHQUvDtKA1577b/dtKhogJs+9dQzgS6HyM/Lt4EDBrqDUzW26EBPDQO+m26aZoV9eruGgV/9+rd25hlnuAPHWPiXZmzbtt06ZWXZKaecbH/841L3nfo+HXSK33ihA2gtv2nTJpsyZVLt+zJr5owjLn3RY+XK1d4SieGn35tvvuWe+2mph97zJWJ91JCg3+j/zoL8/NrnxcXF7jVRvowff44b70bfIZHpEzSdg1DDRrR8d+sT+u2NrY9EW2cJ8l1BBImfINSIor/Lzs5266yGj4EDB9i/fmuqt0Sw3y7KS72vPC4vr6jdxupfKtatW4Gbdu7S2U0BAAAAANFlflHzhTcbu3POPttNdTAtOgMe5HKInJwsd9mPzvDfeec895o/1ooO/tRL4KW/veJ6V+izFtxzn3svFv6lGRoDRp/3+9//pzvrrs/UgWVhYaFbTr061HChddHyc+Z+3x18jh17qntfcvNy3TTy0hc99HsTyU8/9SKQ55//q3uuR+R3JWJ9rrzictd7we9Nosu0/OcTJ17nXpMzTj/d9XxQzyJ9x7z54V4Nft4HTedogua7vz7+b6+/PhJtnRv7ruZcctVQ/Oi7I+MniIsuutD93S23fC+8zvPuDq3Tz+w3v33UW8JcY0/936V1jvztooaWdevWuflHHvmFlW5s+Bbn+g71JlMaAAAAAACCyfwihmNH9SS59dZZ7iy8LtHRwbcO3mMdT0MHev7f1P9b9W7RmfMNGzZ4r4QbGOK1enW4t4a+Twfh/sGjf2mMzur7j+rqauvdu3ftGfzlr6xwl38sXfKE3bPgJ+6SCB2Mt5ZErM+Ce+61K678snuIejD4z/3Lk0SXmaiXRU3onygv1PvEb8ypr7F0jsbv1RQt3/318TW0PtHWOeh3BdFQ/FRVVdWJnyC0ziXrS6xsV5n3irlLeiIv64k1L4Jo7u8GAAAAgHQV02CzOmjUpQV6qFFFB993//in3rvtV2RvDD10wBpJPSym3TDdjaOh3iKnFxe7BgxdjtEa2tr6pLto8RNUji4tSs6NmgAAAAAAzZQZy4GbLtW48ktfcb0WJk2e6i4viLU3SjR79uwN/V9jQ4YMCb8Q0pK9P3SphC7N8HtjRPbKiLzUQ79TvSt0OYR+u4wZM7rRA99ol7RoHItomvrd9ddH69rU+jSXejwMGDAg9LHhD9Y6qaHgkz2fuOeJEs53i5rv/vr4GlqfaOsc9LsiufxqIG2Dxk80Wufhw4+1nj16eq8cqSXyItrvBgAAAADU1WHQ0GE/3Lt3v/e0cZdddombPvvsMjdtiAYpHTXqOBs6dIiNO+00qzpYZdWfVrvnGzZ86JY5/DnPualcf/117o43f//7StuyZYuNHz/eRo4cYUd37my9e/eyr11zlRtDxV8mCB0gnnrqyXbiCSda165dbPfu3dazZy/3+ZE6duhgEyZcHFrvkda9Wzc75pj+dvJJJ9mhQ1+4vxHdnei00O8544zT3ePrX7/WHVi/sWZN7YC7p5x8kh07dKgNHjLIzjnnbBt76ljLycl2B9M7dpTVfpacF/p9xx4bXlafe/7542358le9d82tr9JP42wMGTLYfacaSfzvanB9CgrqrE8sItO/vu49urvfdvrpytuRoby42v2uJUuXujwNms7RaPnzzgvl+3HDm8z32vU5o+H1qbNMI+sc9Lt8WlYxPHjwkfkVJH58uiTujttvs88++8zeeedd79UwDTJ76qmn2CUTLrJhw4fV5u+wYcfa2rVvumW6d+/WwO/Kqf1d/nan37Bz5043/8QTf3RjxhQVDXTzkRRHGsy2U1an2u8AAAAAADQtrrv21KdBSv3LG0Rny/3nsYwX8dvfLXLjqFx91VftO9/+lrulbqyuvDI8mKrWQTSv9au/HrpMRrd/7dWrl7sDipa79tqrXcOET5dc+Jc0RV7WtHjxUm8J3Xr4z7V3Rxk+bLj9n9//3r2u51qXSPp96smg9/R59WnQUt1NRvzvHBI6iPcFWZ9EUa+Xl19e7u5wo+8SpZfWUYKmcxAaWDVavrv1Cf3WxtZHoq2zBPkun5ZtLL+CxE8Q/udUVOyp/Z763xXkt8dCgyrL/n3RG1IBAAAAAGEZ50+4vGbrxzu8p22TBvDUAaoaF3QwifSQzHwnxgAAAAAAQWScf/HlNVu3tq2GlKlTJ9feDlmX0GjsiIMHq23WLbMTPiYL2o7G8l23BI68m00iEGMAAAAAgOZokw0pDzxwnw0eFL6URQNsaryH++5/gAPcFKdbag8qKnLzLZ3vyfwuAAAAAEDqyDj/4itqtm7d7j0FAAAAAABAYxI62CwAAAAAAEAqoyEFAAAAAAAgoMzYb1ILAAAAAACQnuiRAgAAAAAAEBANKQAAAAAAAAFl1liNNwsAAAAAAICm0CMFAAAAAAAgoMyMDIabBQAAAAAACIIeKQAAAAAAAAFlMkIKAAAAAABAMPRIAQAAAAAACIiGFAAAAAAAgIBoSAEAAAAAAAiIhhQAAAAAAICAaEgBAAAAAAAIiIYUAAAAAACAgGhIAQAAAAAACIiGFAAAAAAAgIBoSAEAAAAAAAiIhhQAAAAAAICAaEgBAAAAAAAIiIYUAAAAAACAgDoMGjrsh3v37vOeAvGZOnWy3XTjDfbv//Zt212+2zZs+NB757Agy6SS2bfeYnfccZudcspJlpGRkfK/F6mNeAYAAEC6oyEljT3wwH122WWX2rPPPue9Ep85c263CRdfZB9++KEtW/a8/X3lKjtw4ID3btjcubfbxRc1vUyq2V1ebtu3bbfBQwaH0udi65TVydaufdN7F2hfiGcAAACku4zzJ1xRs/Xj7d7Txj391J+9ubCqqoNWUvK+3Xf/A7Zr1y7vVURzzdVX2cUXX2SFhX3c822hA5I1a9faww//3D1PJjWk6Izy9OkzvVeab8KEi2z6d2+yl19ZbgsW3Ou9WleQZW4dcZyd1bOH5XToaBWffmr/d8sWW7yp1Hs3ufoMyrcx5/W3fsd2s675WfbPVz+2v/7+He/dwy6cONKOPbW3ZWV3tL2V1bbmr6X2xosNr/PChfdbYZ/eNu2G6S2y3Qwe3dNOOm+AHTO8m3ve0PqMLO5rF08Z5T077PlFb9s7q7Z6zxLn5muPs39uqLQX/3ubXXBqod0+9US7+9G33HOfltF7nXOOsh3lB+2PL260//fKJu/dxDv2mFy7avxAG3pMVxvUt6tdM+dlK99T7b2bvPU5IT/fvtS3nx0fmhZ06mQvbN9u97z3rvdu2Dk9e9mX+oeWyct3zxvbLlpj22npeAYAAADaoswMy/Bmo/to40Z3EKyHGlFGjz7RZs2c4b2LaG68cZpNmTLJPvlkjy1a9LgtfPAhN3/SmDHWo0cPb6n26Zyzz3aNa/pdjfGXefTRx7xX6vrm4MF2UZ8+9mrZLlu4fr19fPCAfSv0mg4kW5oaTdQg8qUbxnivmB1/Rl/XiFK5Y7/3ypGKrxhix5/Vz97/7x2uIULLnnP1MNeg0ZDf//4/LTs7x772tau9V5qvoXWeMPV465yXZaue+bDO+mjZ+ta8WOqW8R+b15d77zSPGifUAPHDbx9en7HH9bAvnT3ABvfr6r1ypIkTBrtl1LDyo0ffss2hdZ5xzXF2Wuhv49HQ+oi+7+e3nW4Xjetru/dU219WbLLuuVneu42vj35LPNRoosaOeSeO9l4xu7hPoWtEUaw3ZuaI4datUyf746bSOtuFPs/XUttOQ+scKZHxDAAAALQXGRdMuLLm448PnxlujHqk1O9JMH/eXa4x5Yorv+y9YjZ79i1WPG6sq1xXVFTaX/7ylC1Z+qT3rrkGA42RMfrEE62g4PCBwNIn/1R7gO33lNixY0fos8a51958860jer/oWv3i4sa/S2dLJfJzVq1ebfPm3e3mJcj6SLTfFY2+53e//ZWtDx3kzP7ebVZT470Rovf0u/weG1JSUmLr/vm2XXH5pe47I9c7cjmty6ZNm45Im4Z+e/00bCid66dPUI8/9qjt3LnjiN8WyV/m1tm3ea/U9cQZZ9rBQ5/bt0LrIH1zjraHTj3F3t7zic19q2UuHVBDSL+h+a4HR3XV565BxO910rVbtu0tr6rtwdFQj5R/vfsc+yz0d4/d+Xf3XH/zjf95un28vsL+8sha91p90dIhmqbWWQ04ZZv3uvUWNaBc972xtualUntl6Xr3mv971HiSiB4oang4cWiBnXpcD9t/8DPXAPGzP4Z7Vei9b115rGuQaKxHyh/uOscOhH7Ht38UTsNueVn2uzln2pr15fbDXzechk1pan3879+4da/95PF/2vubP3GvR/LX5zuh9VEox7s+auQYlZfnepQovtXY4fc6UYxvPXjALu/bz6YPG9Zoj5QP9u1zy4kaN3465iT7y8db7OH333ev+dvOv4a2Ha2zPvfB0LbzTjO3nabWub544xkAAABobzIbOeZtFjU2jD/3nNDB+Guut4UO8NUDQwf+PvVg0TKVeypre7fosXJl+ODZp+7iBaEDBn2O3leDzbRp3/HeNdf4MX78ObZt+w73vtT/LskPHQgMHDDQLaMeNWow0N/6gqxPkN8VzRVXXOYaLZ5/4a9HNDT4DRuvv77Gfb4u9+mUlWWnnHKy/fGPS936aL3979u4cVPtepasL7Hhw4+1H/xgrvv8SNHSUJQ+Odk5bhk1tNRPn6DUCKW8aKwRRfxlGqNLG9Ro4tOB49YDVaGDwuwY+k1Fp8aOS751vN1w33lWfPlg99rypevtkVl/q9NQ4jdGNEWX/Gz9oNJ7Fv6biu0HLL/X0d4rR1KsKX9jEXSdP3yzLOp6Z3c+yk1P/5ehNvORi9xnqleLviMoNS78x6QT7C8/Pd81lMgDS961L33vpdpGCzmmV2c3fen1xhtre3fLsXUbKrxn5i6x2bh9v/UPpWHQfA+6PuqFos+87eHXG2xEEX99/FCOXJ+g1JAxZ+Qo+79nn23Xhsof+e2HH9pXVqyo0yDhN440ZXnZzqjL+duOv86R205QQde5vubEMwAAANCexXT744EDB7hGBT383ijqOeFTrw4djKvXyrJlL9icud+38vIKGzv2VG8Js9y8XDfVuBxazn9Efo5PZzj1Of77Y0Lf5zvj9NNdb4wZM2a59+fND/ei0OUjkXJysuyOOf/TLXPnnfNCB/o1dS6jCbI+Df0ufXfk74rG/87nn/+rm6pRxE9LPUQNKvr8quoqG1RU5LrNq9eLesaoEaiwsNAtp3XTuqxbt85ee+2/XQOPlo/8Xb6G0rB+g4t+j/+7pKHPaWmRlyB8LXQQt+Ckk2pf0wFeIh0zrJuNGFvoGjz+83+/Zk/e/3qjY5o0JfLynZMvGGhXzTyl9rVufTpbIlt/mrvOujxJ61Hy+k7vFbNOOR1tc0m5GztFvVLUo2XwiT3tzC8P9ZaI7qRju9mF4/raxm37bdpPVtptD73e4BgifXsebR9t3Wu1R/j1RF4u8y/nDrCf3HSKe01Jp7FLgqZh0PU5dUQP++93d9k3Jgx2jS4vPjjBHrhlXO16RF2fgE4qKLCze/VyjRnfW7vGZq9Zk7DxSnQ5kKwoK3PTxrYdrXMs205LrjMAAACQSjIbPcJpgA7W1TNDDzWi6OD+7h//1Hs33ONA1EjgP6qrq6137961B+/LX1nhxslYuuQJu2fBT9y4IcOHD3fvRarfc0HPdYmLT4O1qmdIjbf+aiRQTw6/YcSnv/N7fERe+uILsj4N/a6qqqo6vytWJ5xwQm1a6tGQ1d4lLlpvNfT4lxqpx4jWV5f36OH//ckn1x0LIloais4mtwVdjwr3kpBjjj7acjI7Wp+cuuuaKBoL5L3XtllBn6Ptuv8x1jWAqCEkVtk5h9dZDSdHZXW0/B6JbfTxNWed1aijQXD1d9s/OpzPq57eUNsQo0t71KNFDSuDTugZuOFizfvl9tfVW62osLMbb0QNDmp4qG/U4HzbsvNAo6VMrtc7RopCaZgTSsO+MfT88AVdH9F3iHqq/Pap993fTLp0iHstYetTUWErdu60vkdnu8tw1LihRo54qYFEA8rqs9dVhvM0UdtOS60zAAAAkGpi6pGiy0M0HsrUb37bDh48YKWlm45onFADi3+Ar4d/dxqfeljoDg9PP/OsVYQOBE4vLnYNGLqbTWsIuj7Rflc0fjpdfPGFbqoeIkpLpWks1Mhz9VVfNQ32q3zQZ+iynNamHjq6lKipdiV/mYY8s/Vjb87cZQQ3vf5a7dnwIJc/xEKXvjz323+6y2I0KKtoQFZd4qLBW4OKHF9EjRH/+ZPVtb1Eyrfvb7SNUpdTfVp9+A4xQcS6zmpEOe+641wPFv1dNHvKDrq7DgWly11+/Pg6d+mMGiNEA7Kql4cGeJXI3h0am0QPDTqrENFUl+P446SIGjZm3Lva9SRR0jXVk6W+IOvj21p2wH2Xvvv3yz60v79V5hp8JOr6BKSYnf/O2+6yGA0SKxr8VZfNaPDW5lAjyg3HHut6jOizfY1tO1rnWLad5q5zc+IZAAAAaM9iakjxqVFAB/IafDXyMhAdKOsSGB3cRz7Um0KX1Pj09+pdoUFNJ02e6l4bM2Z0nbPh9Q+4NdaHeo741PtkwIABoT8J/5EaGNS48UnEGBtB1V8frWvk+gT9XU3RmCta9uKLLmyysSGaoqLwWfbloYMdv3HmhONPcNP6oqVhIql3kC796tGj4bvVyOFlDsdMJN2ydVREjyJdlqCz41sPVgU9no6Z3ztDl8voEpejczt57wSj2wv3HXp4kGKNM6JeI5U7Gz6ALS4udj2cNnz4kfdK7KKt87lXD3N37/n4/XLXuFOfxkXReCuR8nrmuIFrm0ONEbqURpfUqCGioGt4vIxhA8J5efaY3nbH1BPd47qLBrnXNNXlOKLbC58wpMDNixpY1BukqZ4sTWlsfRqTndXBmwvz18ffTCPXpzl+9+GH7jIZXS6jQVs1nkmsbjz2WJs1Yrj9s7LSNZTU5287/jpHbjvNEXSdExHPAAAAQHvTYdDQYT/cu3ef97Rx119/nW0sLbW//32le/7x1m12+WWX2qBBRfbSS39zr3Xs0MEmTLjYRo0aad27dbNjjulvJ590kh069IXt3r3bLTN37u122mmn2RlnnO4eX//6te4A/41QpV3jfcill15iHTseZWedebq7dEafefZZZ9rbb79b+13de3S3U04+yU4/vdh939euudpycrJtydKltmFD+Iz9ZZdd4qbPPrvMTeX6r1/netL4v6PB9SkoqLM+QX5XNFpu8ODBroFG652Xm+c+Z8Tw4danT2/7wxP/6RqDTj31ZDvxhBOta9cu7m969uxlW7Zs8T4ltC6hdJlw8UWhg79sO+qojvaVr3zZBhYNcGmohpodO8rc3+m3d+zQcBq++LdwGiqd9d6zzz7nnkv9fA5K63LmGWe437J8+aveq3XVLlPY8DK9s7Pt1G7dQ9Mc69Ypy64vGmj9QgeET27ebO/vDd4boDn2VVbZh+vKrOS/t3uvhO+Oo3FJehflWkHvzvbFF2Z9ivKs18Bc27I+PDhqbkGWG1+kS362G8RVA8HqMp/XnttoZVuOXOfbbpttOdlZ9pP/fY8dOBBfT5uG1vm628bZsSf3tk92HXS9TLRu/kPLSr9jC2zIib1q13n0uce4v3lv1Tb78K3wMs1R/km1rX57l738Rnh9NGDrY/+1oc7j450H7KwxvevctadbbpZrbCno2sm65BxlUy4bYkV9u9rvn/vQPtoavWxqTP31kUH9utq4UT2sV7ds911fOvsYu3hcP3th9VZ79a3wODL++uQneH12VlXZyl277KUdhy+5091xLujdx47t2tX66nKcGrPj8vJsRG6ura0Ix9iDp4y103v0sLLqKtsW+owzevSsfejzpKW2nYbWOVIi4xkAAABoL5rdkKKDdTUs6JKX199Y456/88679tlnn9mJJ55oZ4UO2seddpqNGDHM1qx5s7YxYMLFF1vxuNOsKFTR10MHDqv/8Q/7/e+fqK2I6wBfY6ts+XirXfu1a+zYY4e6HiG6da+/zNq1b1rfvn3tuNDnDx061I1ZsnjxEvvLU0+79yVIQ0qQ9Qnyu4JYseJV65TVyY4demzt5+Tn57qGHw1C+81vTnG/V40oovePGdDfnnvu8PornfUZZ5w+zjVKZGVl2aLH/o+dc86Z1r9/f/dcv02/XYPWNpWGiWxI0W8YNHiQnV48zk455STXULRzZ1mdgystM3jIIHdnoIaWea283B0IagyIM3v2tKMyM+2J0Lr8ectm936ynfWVYa4BQo0o0iU/y3oNyLWOnTrYP/+/8OUUpe/sdg0SGotk+Kl9LLNjpq1++kN7a8XhuFAD2fnnjbcbbvh3N87Qn//fUzGnb1AXfiN8mU9Ol05uXSMfq/4r3MCoRqD8nkdb0Qk93Drn9TraNaJE3v2npQzu29U1Ury6dkdto8QbJbtdI4q7/GdsX+vQIcN++/QH9uzKw5esJIoadwb07mJnntjLfZfuxPPcqo/tnj8cvlQmmevz7cFDbWz3buFGlJBuoW17SJcubpyT/9oWvnRseih+1NNEY6HovcjH/9m40S2TzG0nmfEMAAAAtEUZ50+4ombrx4fP2LYFDzxwnzvA16UzaJ6FC+9302SnoQbCVQOPLrPS2C26G1B9QZZJJbNvvcXdqlsDIuv216n+e5HaiGcAAACku4zzJ1xZs/XjwwMstgU0pMSvtRpSAAAAAABIZc0abBYAAAAAACAdtckeKQAAAAAAAG0RPVIAAAAAAAACoiEFAAAAAAAgoEx3v18gSSZMuMiefurPbgq0FuIQbQFxCAAA0D7RIwUAAAAAACAgGlIAAAAAAAACiqkh5cKJI+2628a5+ZHFfW3mI3RHjkVxcbHds+AntnTJE647t6azZ9/ivYugiMP4EIeJ0WAcZrinCIA4TAzKw/j4cagY1OPxxx61a66+ynsXAACgYfRISaLrr7/WevXqbU8/86wtfPAhKy3dZOPPPYdKG5Jq4sTriEO0OuIQbcGtt8yw3Nw8W/rkn1wc7ty5w6ZMmWTDhw/3lgAAADhSsxtSevbvYtVVn3vP0sONN05zZ6yaW9G/6675NuuW2fboo4/ZsmUv2C9/9Vv3es9ePd3UH3hw7tzb3VRnyfx5TX09evRwZ2515kzv+Y+pUyd7S6QP4jB2d945jzhMMOIwdg3FYU1NDXEYB+Iwdvfc+4DdfsfcI8rDCy44z02JQwAA0JBADSl+d+Hjz+pnfYpy3fxJFwy0rOyOadWNuFu3Ajft3KWzm8Zq165d7uGbPGmiVVUdtMWLl3qvhBXk59vLryx3Z8TKyyvso40brXhcuOu2zJo5w525rdxT6ZbzHytXrvaWSE3EYVhBQcvE4ZIlT3qvhEWLw5k3TycO68fhw+lzeU+iy8NJ37jeqqurApeHGRnhhKY8ZL8szY3DVatW1YnDxrBfBgAAkQI1pGxeX27PL3rbyrfvtw/fKnPzm0vK3XPNp4t58+62W2ff5s5cNZcqYfPn3eXOWuXm5dq0G6YfUYnbtn2HrVu3zs0/8sgvrHTjJjfv09/J9OkzbcGCe2sfJSUl7vVURRyGzZ/fMnFYVlbmvRsWGYcPP/xzd+lFJD8OZ8yYRRxGxmGa3FE+0eVhXn4e5WEMKA/DEhGHka688nI3ffHFv7mpj/IQAABEyozl5Gnn/Cz7tDrcbbhzXpZV7jzg5tNJIipFFZWVVrK+xAr79La7fzTPdQmOxfJXVrgeBBqcUd2M1bVZByTpgjhsmTjsGWMcrlj+argny+I/EIfEYbNRHsaHOExMHIoGni0eN9ZWrV4d82f6cZiu5SEAAOkmUI+UY4Z1s4unjHJdhkeMLXTz3fp0tsEn9nTzCE6VM52l0lk0nX0tLOwT8zXUS5Y+6f5WgzTqIOR0764DqT5II3GYOA3F4RTiMJCoccidewKrH4d9+vSmPAyI8jCx1Ihy043TXM8TxWOs0jUOAQBIV4EaUt5ZtdV+M2eFm1eX4ftveMF1X1/zYml4Po0k8gyT34Vd117HSn+rrsyq8E2aPNUN0jhmzOiUPohrMA5DiMP41InDGOOnfhyKi8MUFrU8TJNLe6StloeSNuVhKN4oD+OLQ/UemX3rza5nlC4Ra65G98sAACDlBL5rj85+yeb3y91Uyrbs8+bSg0bo1xmm5o7Cr8qazk7pLgCa6rNk7do33TQorYfuDuA/Fi683w28+PHWrSl/EFcbh+vTNw7nzGnBOIwhfrQe9eNQXBymOOKwZcpDlWOJKA8lbcrDDPbL8cThAw/cZ5ddeolVVOyxqqrqOrEUiyb3ywAAIOUEbkjx7S2v8ubSj0bql/379rtprPoWFtqUKZNs+ndvctPc3DxbtOhx1yU4FjnZOe7uAP4jPy98N4H6d7tIZekchxUV8cVhv759ExSH2cQh5WEbiEPKQ+Kw+XE4qKjITXV5Y2Qc6REL4hAAgPSSccGEK2o+/ni79xRoWTr7rAOnhQ8+ZMuWpVf3c7QdxCHaAuIQAACgfYq5RwoAAAAAAEC6okcKAAAAAABAQPRIAQAAAAAACIiGFAAAAAAAgIBoSAEAAAAAAAgos6amxpsFWp7uUvH0U392U6C1EIdoC4hDAACA9inTMrw5AAAAAAAANIlLewAAAAAAAAKKqSHlwokj7brbxrn5kcV9beYjdEeORXFxsd2z4Ce2dMkTrju3prNn3+K9i6CIw/gQh4nRYBzSwy8w4jAxKA/jQxwCAIDmoEdKEl1//bXWq1dve/qZZ23hgw9ZaekmG3/uOXbN1Vd5SwAtb+LE64hDtDriEG0B+2UAANAcmdbMsWZ79u9i1VWfe8/Sw403TnNnrJpbwbrrrvk265bZ9uijj9myZS/YL3/1W/d6z1493dQfeHDu3NvdVGfJ/HlNfT169HBnzB5/7FH3nv+YOnWyt0T6IA5jd+ed84jDBCMOY9dQHGrwc+Kw+YjD2LFfBgAAzZFpAVpS/O7Cx5/Vz/oU5br5ky4YaFnZHdOqG3G3bgVu2rlLZzeN1a5du9zDN3nSRKuqOmiLFy/1XgkryM+3l19ZbsOHD7fy8gr7aONGKx4X7rots2bOcGfMKvdUuuX8x8qVq70lUhNxGFZQ0DJxuGTJk94rYdHicObN04nD+nH4cPpc3pPo8nDSN6636uqqwOVhRkY4oSkP2S8L+2UAAJBMmUHufrx5fbk9v+htK9++3z58q8zNby4pd881ny7mzbvbbp19mztz1VyqhM2fd5c7a5Wbl2vTbphepxIn27bvsHXr1rn5Rx75hZVu3OTmffo7mT59pi1YcG/to6SkxL2eqojDsPnzWyYOy8rKvHfDIuPw4Yd/7rq8R/LjcMaMWcRhZBymyR3lE10e5uXnUR7GgPIwrDX2y5SHAAAgUI8UX+f8LPu0OtxtuHNellXuPODm00kiKkUVlZVWsr7ECvv0trt/NM91CY7F8ldWuDNmGhRP3YzVtVkVwXRBHLZMHPaMMQ5XLH813JNl8R+IQ+Kw2SgP40Mctq04TNfyEACAdBNosNljhnWzi6eMcl2GR4wtdPPd+nS2wSf2dPMIThU+naXSWTSd9Sos7BPzNdRLlj7p/laD46nyd7p314FUHxyPOEychuJwCnEYSNQ45M49gdWPwz6hg1jKw2AoDxOH/TIAAIhVpgW4tuedVVvtN3NWuHl1Gb7/hhdcR5Y1L5aG59NIIs8w+V2Hde11rPS36sqsit+kyVPdII1jxoxO6YO4BuMwhDiMT504jDF+6sehuDhMYVHLwzS5tEfaankoaVMehuKN8rCN75cBAEDKCXz7Y539ks3vl7uplG3Z582lB43QrzNMzR2FX119dXZKdwHQVJ8la9e+6aZBaT10dwD/sXDh/W7gxY+3bk35g7jaOFyfvnE4Z04LxmEM8aP1qB+H4uIwxRGHLVMeqhxLRHkoaVMeZrBfbrHyMAZN7pcBAEDKydQZk1jsLa/y5tKPRuqX/fv2u2ms+hYW2pQpk2z6d29y09zcPFu06HHXJTgWOdk57u4A/iM/L3w3gfp3GUhl6RyHFRXxxWG/vn0TFIfZxCHlYRuIQ8pD4pD9MgAASK6M8RdMqNm+Y7f3FGhZOuunCuvCBx+yZcvSq/s52g7iEG0BcQgAANA+Bb60BwAAAAAAIN3RIwUAAAAAACCgzLS6xQQAAAAAAEAcMmlHAQAAAAAACCazhpYUAAAAAACAQDItxtsfA/HQXSqefurPbgq0FuIQbQFxCAAA0D5x1x4AAAAAAICAaEgBAAAAAAAIKKaGlAsnjrTrbhvn5kcW97WZj9AdORbFxcV2z4Kf2NIlT7ju3JrOnn2L9y6CIg7j48ehYlCPxx971K65+irvXQTVYBxmuKcIgPIwMSgP40McAgCA5qBHShJdf/211qtXb3v6mWdt4YMPWWnpJht/7jkcxCKpZt96s+Xm5tnSJ//k4nDnzh02ZcokGzFihLcE0PImTryO8hCtjv0yAABojmY3pPTs38Wqqz73nqWHG2+c5s5YNbeCdddd823WLbPt0Ucfs2XLXrBf/uq37vWevXq6qT/w4Ny5t7upzpL585r6evTo4c6YqSeB3vMfU6dO9pZIH8Rh7Bbc8zO7/Y65R8Th+eePd1PiMHbEYezuvHPeEeVhTU0N5WEciMPYsV8GAADNEaghxe8ufPxZ/axPUa6bP+mCgZaV3TGtuhF361bgpp27dHbTWO3atcs9fJMnTbSqqoO2ePFS75Wwgvx8e/mV5TZ8+HArL6+wjzZutOJx4a7bMmvmDHfGrHJPpVvOf6xcudpbIjURh2EFBfHF4apVq+rEYWOixeHMm6cTh/Xj8OH0ubwn0eXhpG9cb9XVVYHLw4yMcEJTHrJfFvbLAAAgmQI1pGxeX27PL3rbyrfvtw/fKnPzm0vK3XPNp4t58+62W2ff5s5cNZcqYfPn3eXOWuXm5dq0G6YfcVC7bfsOW7dunZt/5JFfWOnGTW7ep7+T6dNn2oIF99Y+SkpK3OupijgMmz8//jiMdOWVl7vpSy+97Ka+yDh8+OGfuy7vkfw4nDFjFnEYGYdpckf5RJeHefl5lIcxoDwMa439MuUhAACI6dKezvlZ9ml1uNtw57wsq9x5wM2nk0RUiioqK61kfYkV9ultd/9onusSHIvlr6xwZ8w0KJ66GatrsyqC6YI4TEwcigZaLB431latXm3vvfee92owK5a/6uJwyeI/EIfEYbNRHsaHOGxbcZiu5SEAAOkmUEPKMcO62cVTRrkuwyPGFrr5bn062+ATe7p5BKcKn85S6SyaznoVFvaJ+RrqJUufdH+rwfFU+Tvdu+tAqg+ORxwmlhpRbgpV9nWmVfEYK+KwkTjkzj2B1S8P+4QOYikPg6E8TBz2ywAAIFaZQfqhv7Nqq/1mzgo3ry7D99/wgvuzNS+WhufTSCLPMPldh3Xtdaz0t+rKrIrfpMlT3SCNY8aMTumDuAbjMIQ4jJ3OluruPToDq0simqt+HIqLwxQWtTxMk0t7pK2Wh5I25WEo3igP2/h+GQAApJzAl/bo7Jdsfr/cTaVsyz5vLj1ohH6dYWruKPw6eNXZKd0FQFN9lqxd+6abBqX10N0B/MfChfe7gRc/3ro15Q/iauNwffrG4Zw58cWh4uWySy+xioo9VlVVXSeWYqH1iPxbfa64OExxxGHLlIcqxxJRHkralIcZ7Jfb/H4ZAACknJjGSJG95VXeXPrRSP2yf99+N41V38JCmzJlkk3/7k1umpubZ4sWPe66BMciJzvH3R3Af+Tnhe8mUP8uA6ksneOwoiK+OBxUVOSm6r4eGUd6+HdCCSInO7vO3xKH6SXe8rBf376UhwlCHLJfBgAAyZVx7nnn1+wo+8R7CrQsnfVThXXhgw/ZsmXp1f0cbQdxiLaAOAQAAGifMmvS6Hp+AAAAAACAeGScc+55NTt37/WeAgAAAAAAoDExj5ECAAAAAACQrjJ1ez4AAAAAAABER0MKAAAAAABAQJlmNKQgeXSXiqef+rObAq2FOERbQBwCAAC0T9y1BwAAAAAAICAGmwUAAAAAAAgopoaUCyeOtOtuG+fmRxb3tZmP0B05FsXFxXbPgp/Y0iVPuO7cms6efYv3LoIiDuNDHCZGg3GY4Z4iAD8OFYN6PP7Yo3bN1Vd57yIoysP4UB4CAIDmYLDZJLr++mutV6/e9vQzz9rCBx+y0tJNNv7cczh4QFJNnHgdcYhWN/vWmy03N8+WPvknF4c7d+6wKVMm2fDhw70lgJbHfhkAADRHpjWzIaVn/y5WXfW59yw93HjjNHfGqrkVrLvumm+zbpltjz76mC1b9oL98le/da/37NXTTf2BB+fOvd1NdZbMn9fU16NHD3fGTGdw9Z7/mDp1srdE+iAOY3fnnfOIwwQjDmO34J6f2e13zK0Th2rYv+CC89z7xGHsiMPYsV8GAADNkRmkGcXvLnz8Wf2sT1Gumz/pgoGWld0xrboRd+tW4Kadu3R201jt2rXLPXyTJ020qqqDtnjxUu+VsIL8fHv5leXuzGx5eYV9tHGjFY8Ld92WWTNnuDNmlXsq3XL+Y+XK1d4SqYk4DCsoaJk4XLLkSe+VsGhxOPPm6cRh/Th8OH0u74m3PFy1alWdOGxMY3GYkRFOaMpD9svCfhkAACRToNsfb15fbs8vetvKt++3D98qc/ObS8rdc82ni3nz7rZbZ9/mzlw1lyph8+fd5c5a5ebl2rQbph9xMLFt+w5bt26dm3/kkV9Y6cZNbt6nv5Pp02faggX31j5KSkrc66mKOAybP79l4rCsrMx7NywyDh9++Oeuy3skPw5nzJhFHEbGYZpcLZmI8jDSlVdc7hpHXnzxb94rYZSHDaM8DGuN/TLlIQAAiGmw2c75WfZpdbjbcOe8LKvcecDNp5NEVIoqKiutZH2JFfbpbXf/aJ7rEhyL5a+scGfMNCieuhmra7MqgumCOGyZOOwZYxyuWP5quCfL4j8Qh8RhXDTgZ3HxWFu1enXMn0l5SBy2pf1yupaHAACkm0ANKccM62YXTxnlugyPGFvo5rv16WyDT+zp5hGcKnw6S6WzaDrrVVjYJ+ZrqJcsfdL9rQbHU+XvdO+uA6k+OB5xmDgNxeEU4jCQqHHInXtiokaUm0IHnTrjP3/+j71XgyMOKQ/jxX4ZAADEKlBDyjurttpv5qxw8+oyfP8NL7ju62teLA3Pp5FEnmHyuw7r2utY6W/VlVkVv0mTp7pBGseMGZ3SB3ENxmEIcRifOnEYY/zUj0NxcZjCopaHaXJpj8Qbhzprr7v3qCeALs1p7l3kGo3DdCgPQ0lGedjG98sAACDlZAataersl2x+v9xNpWzLPm8uPWiEfp1hau4o/Dpo0Nkp3QVAU32WrF37ppsGpfXQ3QH8x8KF97uxBT7eujXlD+Jq43B9+sbhnDktGIcxxI/Wo34ciovDFEccxl8eKl4uu/QSq6jYY1VV1XViKRYNlYeSNuVhaBfOfrmN75cBAEDKyYz1hN3e8ipvLv1opH7Zv2+/m8aqb2GhTZkyyaZ/9yY3zc3Ns0WLHnddgmORk53j7g7gP/LzwncTqH+XgVSWznFYURFfHPbr2zdBcZhNHFIeNjsOBxUVuakuo4iMIz1iQXlIHAr7ZQAAkEwZZ5x5Vk35nvSthCG5dNZPFdaFDz5ky5alV/dztB3EIdoC4hAAAKB9CnxpDwAAAAAAQLrLOOPMs2vK9xz0ngIAAAAAAKAxge7aAwAAAAAAANeQkuK3NQAAAAAAAEgQeqQAAAAAAAAEREMKkkp3qXj6qT+7KdBaiEO0BcQhAABA+0RDCgAAAAAAQEA0pAAAAAAAAASUaZbhzUZ34cSRdt1t49z8yOK+NvMRuiPHori42O5Z8BNbuuQJ151b09mzb/HeRVDEYXyIw8RoMA6DF6dpjzhMDMrD+Cnu/MuruNwKAAAEQY+UJLr++mutV6/e9vQzz9rCBx+y0tJNNv7cc+yaq6/ylgBa3sSJ1xGHaHXEIdoCNegp7oYMGeK9AgAAEF2zG1J69u9i1VWfe8/Sw403TnNnqppb0b/rrvk265bZ9uijj9myZS/YL3/1W/d6z1493dQ/EzZ37u1uqrO1/rymvh49ergzaI8/9qh7z39MnTrZWyJ9EIexu/POecRhghGHsWsoDmtqaojDOBCHsRsxYpibbtiwwU3rIw4BAEBDAjWk+N2Fjz+rn/UpynXzJ10w0LKyO6ZVN+Ju3QrctHOXzm4aq127drmHb/KkiVZVddAWL17qvRJWkJ9vL7+y3IYPH27l5RX20caNVjwu3HVbZs2c4c6gVe6pdMv5j5UrV3tLpCbiMKygoGXicMmSJ71XwqLF4cybpxOH9ePw4VAcpsnlPYkuDyd943qrrq4KXB5mZIQTmvKQ/bI0Nw779evnpmrMawr7ZQAAEClQQ8rm9eX2/KK3rXz7fvvwrTI3v7mk3D3XfLqYN+9uu3X2be4ManOpEjZ/3l3urFVuXq5Nu2F6nYMJ2bZ9h61bt87NP/LIL6x04yY379PfyfTpM23BgntrHyUlJe71VEUchs2f3zJxWFZW5r0bFhmHDz/8c3fpRSQ/DmfMmEUcRsZhjbdgikt0eZiXn0d5GAPKw7B447B37162bdt271njKA8BAECkmC7t6ZyfZZ9Wh7sNd87LssqdB9x8OklEpaiistJK1pdYYZ/edveP5rkuwbFY/soK14NAgzOqm7G6NuuAJF0Qhy0Thz1jjMMVy18N92RZ/AfikDhsNsrD+BCH8cXhoKIi27lzp/es+fw4TNfyEACAdBOoIeWYYd3s4imjXJfhEWML3Xy3Pp1t8Ik93TyCU4VPZ6l0Fk1nXwsL+8R8DfWSpU+6v9UgjToIOd27+0WqD9JIHCZOQ3E4hTgMJGoccueewOrHYZ8+vSkPA6I8jJ8GmvWuEHNjoejhDzqraSyNeukahwAApKvMIP3Q31m11X4zZ4WbV5fh+294wf3ZmhdLw/NpJJFnmPwu7Lr2Olb6W3Vl1gHIpMlT3SCNY8aMTumDuAbjMIQ4jE+dOIwxfurHobg4TGFRy8M0ubRH2mp5KGlTHobijfKweXEYHmg2w0aPPtGmf/cm97js0kvce5qecspJbj6oRvfLAAAg5QS+tEdnv2Tz++VuKmVb9nlz6UEj9OsMU3NH4VdXX52d0lkvTfVZsnbtm24alNZDdwfwHwsX3u8GXvx469aUP4irjcP16RuHc+a0YBzGED9aj/pxKC4OUxxx2DLlocqxRJSHkjblYQb75ebGoRo9rrjyy3UeuhW3aBptANpITe6XAQBAyolpjBTZW17lzaUfjdQv+/ftd9NY9S0stClTJrmzXprm5ubZokWPuy7BscjJznF3B/Af+XnhuwnUv9tFKkvnOKyoiC8O+/Xtm6A4zCYOKQ/bQBxSHhKHzY/DRCEOAQBILxlnnHlWTfme9K2EIbl09lkHTrGe7QMSiThEW0AcAgAAtE+ZKX0ROQAAAAAAQAJlnHHm2TXlew56TwEAAAAAANCYmMdIAQAAAAAASFeZGVzZAwAAAAAAEAhjpAAAAAAAAAREjxQkle5S8fRTf3ZToLUQh2gLiEMAAID2iTFSAAAAAAAAAuLSHgAAAAAAgIBiurTnwokj7brbxrn5kcV9beYjdEeORXFxsd2z4Ce2dMkTrju3prNn3+K9i6CIw/gQh4nRYBzSLh0YcZgYlIfxIQ4BAEBz0CMlia6//lrr1au3Pf3Ms7bwwYestHSTjT/3HLvm6qu8JYCWN3HidcQhWh1xiLaA/TIAAGiOzOY2o/Ts38Wqqz73nqWHG2+c5s5YNbeCdddd823WLbPt0Ucfs2XLXrBf/uq37vWevXq6qT/w4Ny5t7upzpL585r6evTo4c6YPf7Yo+49/zF16mRvifRBHMbuzjvnEYcJRhzGrqE4rKmpIQ7jQBzGjv0yAABojkwLcG2P3134+LP6WZ+iXDd/0gUDLSu7Y1p1I+7WrcBNO3fp7Kax2rVrl3v4Jk+aaFVVB23x4qXeK2EF+fn28ivLbfjw4VZeXmEfbdxoxePCXbdl1swZ7oxZ5Z5Kt5z/WLlytbdEaiIOwwoKWiYOlyx50nslLFoczrx5OnFYPw4fTp/LexJdHk76xvVWXV0VuDzM8PZdlIfsl4X9MgAASKZAd+3ZvL7cnl/0tpVv328fvlXm5jeXlLvnmk8X8+bdbbfOvs2duWouVcLmz7vLnbXKzcu1aTdMr1OJk23bd9i6devc/COP/MJKN25y8z79nUyfPtMWLLi39lFSUuJeT1XEYdj8+S0Th2VlZd67YZFx+PDDP3dd3iP5cThjxiziMDIOa7wFU1yiy8O8/DzKwxhQHoa1xn6Z8hAAAGT6Z/WC6JyfZZ9Wh7sNd87LssqdB9x8OklEpaiistJK1pdYYZ/edveP5rkuwbFY/soKd8ZMg+Kpm7G6NqsimC6Iw5aJw54xxuGK5a+Ge7Is/gNxSBw2G+VhfIjDthWH6VoeAgCQbgL1SDlmWDe7eMoo12V4xNhCN9+tT2cbfGJPN4/gVOHTWSqdRdNZr8LCPjFfQ71k6ZPubzU4nip/p3t3HUj1wfGIw8RpKA6nEIeBRI3DNLm0JxHqx2Gf0EEs5WEwlIeJw34ZAADEKlCPlHdWbbXfzFnh5tVl+P4bXnDd19e8WBqeTyOJPMPkdx3Wtdex0t+qK7MqfpMmT3WDNI4ZMzqlD+IajMMQ4jA+deIwxvipH4fi4jCFRS0P0+TSHmmr5aGkTXkYijfKwza+XwYAACknUI8U0dkv2fx+uZtK2ZZ93lx60Aj9OsPU3FH41dVXZ6d0FwBN9Vmydu2bbhqU1kN3B/AfCxfe7wZe/Hjr1pQ/iKuNw/XpG4dz5rRgHMYQP1qP+nEoLg5THHHYMuWhyrFElIeSNuVhBvvlFisPY9DkfhkAAKScwA0pvr3lVd5c+tFI/bJ/3343jVXfwkKbMmWSTf/uTW6am5tnixY97roExyInO8fdHcB/5OeF7yZQ/y4DqSyd47CiIr447Ne3b4LiMJs4pDxsA3FIeUgcsl8GAADJlXHueRfU7Cjb4z0FWpbO+qnCuvDBh2zZsvTqfo62gzhEW0AcAgAAtE8x90gBAAAAAABIV/RIAQAAAAAACCgzrW4xAQAAAAAAEAcu7QEAAAAAAAiIhhQAAAAAAICAaEhBUukuFU8/9Wc3BVoLcYi2gDgEAABonzLNMrxZAAAAAAAANIUeKQAAAAAAAAHF1JBy4cSRdt1t49z8yOK+NvMRuiPHori42O5Z8BNbuuQJ151b09mzb/HeRVDEYXyIw8RoMA7p4BeYH4eKQT0ef+xRu+bqq7x3ERTlYXwoDwEAQHPQIyWJrr/+WuvVq7c9/cyztvDBh6y0dJONP/ccDh6QVBMnXkccotXNvvVmy83Ns6VP/snF4c6dO2zKlEk2fPhwbwmg5bFfBgAAzdHshpSe/btYddXn3rP0cOON09wZq+ZWsO66a77NumW2PfroY7Zs2Qv2y1/91r3es1dPN/UHHpw793Y31Vkyf15TX48ePdwZM53B1Xv+Y+rUyd4S6YM4jN2dd84jDhOMOIzdgnt+ZrffMbdOHNbU1NgFF5zn3icOY0ccxo79MgAAaI5ADSl+d+Hjz+pnfYpy3fxJFwy0rOyOadWNuFu3Ajft3KWzm8Zq165d7uGbPGmiVVUdtMWLl3qvhBXk59vLryx3Z2bLyyvso40brXhcuOu2zJo5w50xq9xT6ZbzHytXrvaWSE3EYVhBQcvE4ZIlT3qvhEWLw5k3TycO68fhw+lzeU+85eGqVavqxGFjGovDjIxwQlMesl8W9ssAACCZAjWkbF5fbs8vetvKt++3D98qc/ObS8rdc82ni3nz7rZbZ9/mzlw1lyph8+fd5c5a5ebl2rQbph9xMLFt+w5bt26dm3/kkV9Y6cZNbt6nv5Pp02faggX31j5KSkrc66mKOAybP79l4rCsrMx7NywyDh9++Oeuy3skPw5nzJhFHEbGYY23YIpLRHkY6corLneNIy+++DfvlTDKw4ZRHoa1xn6Z8hAAAMR0aU/n/Cz7tDrcbbhzXpZV7jzg5tNJIipFFZWVVrK+xAr79La7fzTPdQmOxfJXVrgzZhoUT92M1bVZFcF0QRy2TBz2jDEOVyx/NdyTZfEfiEPiMC4a8LO4eKytWr065s+kPCQO29J+OV3LQwAA0k2ghpRjhnWzi6eMcl2GR4wtdPPd+nS2wSf2dPMIThU+naXSWTSd9Sos7BPzNdRLlj7p/laD46nyd7p314FUHxyPOEychuJwCnEYSNQ45M49MVEjyk2hg06d8Z8//8feq8ERh5SH8WK/DAAAYhWoIeWdVVvtN3NWuHl1Gb7/hhdc9/U1L5aG59NIIs8w+V2Hde11rPS36sqsit+kyVPdII1jxoxO6YO4BuMwhDiMT504jDF+6sehuDhMYVHLwzS5tEfijUOdtdfde9QTQJfmqBxrjkbjMB3Kw1CSUR628f0yAABIOYEv7dHZL9n8frmbStmWfd5cetAI/TrD1NxR+HXQoLNTuguApvosWbv2TTcNSuuhuwP4j4UL73djC3y8dWvKH8TVxuH69I3DOXNaMA5jiB+tR/04FBeHKY44jL88VLxcduklVlGxx6qqquvEUiwaKg8lbcrDDPbLbX6/DAAAUk5MY6TI3vIqby79aKR+2b9vv5vGqm9hoU2ZMsmmf/cmN83NzbNFix53XYJjkZOd4+4O4D/y88J3E6h/l4FUls5xWFERXxz269s3QXGYTRxSHjY7DgcVFbmpLqOIjCM9YkF5SBwK+2UAAJBMGeecd0HNzrI93lOgZemsnyqsCx98yJYtS6/u52g7iEO0BcQhAABA+5SZVhf0AwAAAAAAxCHjnPPOr9lZ9on3FAAAAAAAAI2JeYwUAAAAAACAdEVDCgAAAAAAQEA0pAAAAAAAAAREQwqSSnepePqpP7sp0FqIQ7QFxCEAAED7REMKAAAAAABAQJnc/BgAAAAAACCYmHqkXDhxpF132zg3P7K4r818hO7IsSguLrZ7FvzEdeXW4/HHHrVrrr7KexdBEYfx8eNw6ZInXBxqOnv2Ld67CKrBOMxwTxGAf1lL/QeXucSG8jA+lIcAAKA5uLQniW69ZYbl5ubZ0if/ZAsffMh27txhU6ZMsuHDh3tLAC1v4sTrrFev3vb0M8+6OCwt3WTjzz2HRj20iv969jkXh/7j9dfXeO8ALe/666+lPAQAADHLbO4J1J79u1h11efes/Rw443T3Bmr5law7rn3Abv9jrn26KOP2bJlL9gvf/Vb9/oFF5znpv4Z2rlzb3dTnSXz5zX19ejRw50xU48Wvec/pk6d7C2RPojD2N155zybdcvsI+KwZ6+ebkocxo44bL4NGza4OPQfu3btcq8Th7EjDmN3113zKQ8BAEDMAvVI8bsLH39WP+tTlOvmT7pgoGVld0yrbsTduhW4aecund00VqtWrao9SGhKQX6+vfzKctdTpby8wj7auNGKx4W7bsusmTPcGbPKPZVuOf+xcuVqb4nURByGFRTEF4eKwcg4nDxpolVVHbQlS570XgmLFoczb55OHNaPw4fT5/KeeMvD3K65bvqNiRPdAacuqZg/7y53QBqpsTjMyAgnNOUh+2VJdHm4ePFS75Uw9ssAACBSpl8Zbcrm9eX2/KK3rXz7fvvwrTI3v7mk3D3XfLqYN+9uu3X2be7MVSJceeXlbvrii39zU9+27Tts3bp1bv6RR35hpRs3uXlfbl74AGT69Jm2YMG9tY+SkhL3eqoiDsPmz48/DnUwoINWnT1VPE27YbqVlZV574ZFxuHDD//cdXmP5MfhjBmziMPIOEyTEbzjLQ914KtY+ctfnnKXVKxa/ZqNHn2iTZv2HW+JMMrDhlEehiViv9xQeVj/pAflIQAAiJQZS6W/c36WfVod7jbcOS/LKncecPPpJFGVIg1wVzxubOjgYXXMn7n8lRXujJnO4Kqbsbo2qyKYLojDxMRhRWWllawvscI+ve3uH82znvV6AkSzYvmr4Z4si/9AHBKHMdOBrw6Alyx90l1SoYPO9957z8aMPtFbIhjKQ+KwJcrD+j2jovHjMF3LQwAA0k1mkG7oxwzrZhdPGeW6DI8YW+jmu/XpbINP7OnmERs1otwUqmTpDJfOpsVKBx46Y6bB8VT5O92760CqD45HHCaODjx04Kr4UywVFvaxKTFey08cNhKHaXJpT0vYvn2nZWfneM+CIQ4pD+PVUHkY69gm6RqHAACkq8wgtf53Vm2138xZ4ebVZfj+G15w3dfXvFgank8j8Z5h0lmq2bfe7M58qSt6c6nbsc7oquI3afJUq6mpsTFjRqf0QVyDcRhCHMbH78KuMQBijZ/6cSguDlNY1PIwTS7tkXjisP5gndKnTy93Vj9WjcZhOpSHoXijPGyh8jBGje6XAQBAygl8+2Od/ZLN75e7qZRt2efNpQdV+nWGqbmj8D/wwH122aWXWEXFntDBQrUb4d9/xELrEfm3Cxfe7wZe/Hjr1pQ/iKuNw/XpG4dz5sQXh2rM01lS3Y1CU32WrF37Zkzxo/WoH4fi4jDFEYfxl4fqBaDBOhU7ikVNR4wY4cZKiUVD5aGkTXmYwX65xcrDGDS5XwYAACkn0KU9kfaWV3lz6Ucj9cv+ffvdNFaDiorcVN2GNbp/5CMWOdk5df42Py98N4H6dxlIZekchxUV8cVhv759bcqUSTb9uze5aW5uni1a9Ljrmh6LnOxs4pDysNlxePePf2pvvvmWGytKsaip4keXWMSC8pA4lObGYd/CwgSVh8QhAADpJOPcCy6s2bGj0nsKtCyd9VOFVXfp0ACTQGsgDtEWEIcAAADtU+BLewAAAAAAANIdPVIAAAAAAAACokcKAAAAAABAQJk1aXSrTgAAAAAAgHhkpvz9IQEAAAAAABIkk2YUJJPuUvH0U392U6C1EIdoC4hDAACA9imTDikAAAAAAADBMNgsAAAAAABAQDE1pFw4caRdd9s4Nz+yuK/NfITuyLEoLi62exb8xJYuecJ159Z09uxbvHcRFHEYH+IwMRqMwwz3FAH4cagY1OPxxx61a66+ynsXQVEexofyEAAANEdmBtf2JM31119rvXr1tqefedYWPviQlZZusvHnnsPBA5Jq4sTriEO0utm33my5uXm29Mk/uTjcuXOHTZkyyYYPH+4tAbQ89ssAAKA5mj3YbM/+Xay66nPvWXq48cZp7oxVcytYd90132bdMtseffQxW7bsBfvlr37rXu/Zq6eb+gMPzp17u5vqLJk/r6mvR48e7oyZzuDqPf8xdepkb4n0QRzG7s475xGHCUYcxm7BPT+z2++YWycOa2pq7IILznPvE4exIw5jx34ZAAA0R2ao5urNNs7vLnz8Wf2sT1Gumz/pgoGWld0xrboRd+tW4Kadu3R201jt2rXLPXyTJ020qqqDtnjxUu+VsIL8fHv5leXuzGx5eYV9tHGjFY8Ld92WWTNnuDNmlXsq3XL+Y+XK1d4SqYk4DCsoaJk4XLLkSe+VsGhxOPPm6cRh/Th8OH0u74m3PFy1alWdOGxMY3GYkRFOaMpD9svCfhkAACRTZoB2FNu8vtyeX/S2lW/fbx++VebmN5eUu+eaTxfz5t1tt86+zZ25ai5VwubPu8udtcrNy7VpN0w/4mBi2/Ydtm7dOjf/yCO/sNKNm9y8T38n06fPtAUL7q19lJSUuNdTFXEYNn9+y8RhWVmZ925YZBw+/PDPXZf3SH4czpgxiziMjMM0uVoyEeVhpCuvuNw1jrz44t+8V8IoDxtGeRjWGvtlykMAAJBZU/OFNxtd5/ws+7Q63G24c16WVe484ObTSSIqRRWVlVayvsQK+/S2u380z3UJjsXyV1a4M2YaFE/djNW1WRXBdEEctkwc9owxDlcsfzXck2XxH4hD4jAuGvCzuHisrVq9OubPpDwkDtvSfjldy0MAANJNoEt7jhnWzS6eMsp1GR4xttDNd+vT2Qaf2NPNIzhV+HSWSmfRdNarsLBPzNdQL1n6pPtbDY6nyt/p3l0HUn1wPOIwcRqKwynEYSBR45A798REjSg3hQ46dcZ//vwfe68GRxxSHsaL/TIAAIhVZpB+6O+s2mq/mbPCzavL8P03vOD+bM2LpeH5NJLIM0x+12Fdex0r/a26MqviN2nyVDdI45gxo1P6IK7BOAwhDuNTJw5jjJ/6cSguDlNY1PIwTS7tkXjjUGftdfce9QTQpTkqx5qj0ThMh/IwlGSUh218vwwAAFJO4Lv26OyXbH6/3E2lbMs+by49aIR+nWFq7ij8OmjQ2SndBUBTfZasXfummwal9dDdAfzHwoX3u7EFPt66NeUP4mrjcH36xuGcOS0YhzHEj9ajfhyKi8MURxzGXx4qXi679BKrqNhjVVXVdWIpFg2Vh5I25WEG++U2v18GAAApJzPWiube8ipvLv1opH7Zv2+/m8aqb2GhTZkyyaZ/9yY3zc3Ns0WLHnddgmORk53j7g7gP/LzwncTqH+XgVSWznFYURFfHPbr2zdBcZhNHFIeNjsOBxUVuakuo4iMIz1iQXlIHAr7ZQAAkEwZZ5x1dk155UHvKdCydNZPFdaFDz5ky5alV/dztB3EIdoC4hAAAKB9ymRgRAAAAAAAgGAyzjz77JrdFfRIAQAAAAAAiCbTmwIAAAAAACAKGlIAAAAAAAACoiEFAAAAAAAgoExjtFkkke5S8fRTf3ZToLUQh2gLiEMAAID2KZNmFAAAAAAAgGC4tAcAAAAAACCgmBpSLpw40q67bZybH1nc12Y+QnfkWBQXF9s9C35iS5c84bpzazp79i3euwiKOIyPH4eKQT0ef+xRu+bqq7x3EVSDcUgXv8CIw8SgPIwPcQgAAJqDHilJdP3111qvXr3t6WeetYUPPmSlpZts/LnnUGlDUs2+9WbLzc2zpU/+ycXhzp07bMqUSTZixAhvCaDlNRaHw4cP95YAWt6tt8wgDgEAQMya3ZDSs38Xq6763HuWHm68cZo7Y9Xcho+77ppvs26ZbY8++pgtW/aC/fJXv3Wv9+zV0039gQfnzr3dTXWWzJ/X1NejRw/Xk0VnzvSe/5g6dbK3RPogDmO34J6f2e13zD0iDs8/f7ybEoexIw5j11Ac1tTU2AUXnOfeJw5jRxzG7p57H2iwPCQOAQBAUwI1pPjdhY8/q5/1Kcp18yddMNCysjumVTfibt0K3LRzl85uGqtdu3a5h2/ypIlWVXXQFi9e6r0SVpCfby+/stydESsvr7CPNm604nHhrtsya+YM15Olck+lW85/rFy52lsiNRGHYQUF8cXhqlWr6sRhY6LF4cybpxOH9ePw4fS5vCfe8jDeOMzICCc05SH7ZWnt8jBd4xAAgHSVWePNNGXz+nJ7ftHbVr59v334Vpmb31xS7p5rPl3Mm3e33Tr7NnfmqrlUCZs/7y531io3L9em3TD9iErctu07bN26dW7+kUd+YaUbN7l5n/5Opk+faQsW3Fv7KCkpca+nKuIwbP78+OMw0pVXXu6mL730spv6IuPw4Yd/7i5Fi+TH4YwZs4jDyDgMUqimgESUh5GuvOJy1zjy4ot/814JozxsGOVhWMLj0CsPm4pDykMAAJAZS62/c36WfVod7jbcOS/LKncecPPpJBGVoorKSitZX2KFfXrb3T+a57oEx2L5KytcTxYNVqtuxurarAaadEEcJiYORQMtFo8ba6tWr7b33nvPezWYFctfdXG4ZPEfiEPiMC4uDovDcRjrZ1IeEoctUR42Nw7TtTwEACDdBLq055hh3eziKaNcl+ERYwvdfLc+nW3wiT3dPIJT5UxnqXQWTb1RCgv7xHwN9ZKlT7q/1aC1apQ53bvrQKoPWkscJpYOGm4KVfZ1plXxGCvisJE45M49MYmMw/nzf+y9GhxxSHmYCJSHAAAgFoEaUt5ZtdV+M2eFm1eX4ftveMF1ZFnzYml4Po0k8gyTf0mPrr2Olf5WXZlV4Zs0eaobpHHMmNEpfRDXYByGEIex09lS3TVFPaN0SURz1Y9DcXGYwqKWh2lyaY8kOg5VjjVHo3GYDuVhKMkoD9tmeVi7XwYAACkn8F17dPZLNr9f7qZStmWfN5ceNEK/zjA1dxR+VdZ0dkp3AdBUnyVr177ppkFpPXR3AP+xcOH9bmyBj7duTfmDuNo4XJ++cThnTnxxqHi57NJLrKJij1VVVdeJpVhoPSL/Vp8rLg5THHEYf3mYqDhsqDyUtCkPM9gvxxOHDzxwX4vFYe1+GQAApJzADSm+veVV3lz60Uj9sn/ffjeNVd/CQpsyZZJN/+5Nbpqbm2eLFj3uugTHIic7x90dwH/k54XvJlD/7j+pLJ3jsKIivjgcVFTkprqsLDKO9PDvhBJETnZ2nb8lDtNLvOVhU3EYC8pD4lCIQwAAkEwZZ559ds3uioPeU6BlqTeOGpIWPviQLVuWXt3P0XYQh2gLiEMAAID2KeYeKQAAAAAAAOmKHikAAAAAAAAB0SMFAAAAAAAgIBpSAAAAAAAAAqIhBQAAAAAAICAaUgAAAAAAAAKiIQUAAAAAACAgGlIAAAAAAAACoiEFAAAAAAAgIBpSAAAAAAAAAqIhBQAAAAAAICAaUgAAAAAAAAKiIQUAAAAAACAgGlIAAAAAAAACoiEFAAAAAAAgIBpSAAAAAAAAAqIhBQAAAAAAICAaUgAAAAAAAAKiIQUAAAAAACAgGlIAAAAAAAACoiEFAAAAAAAgIBpSAAAAAAAAAqIhBQAAAAAAICAaUgAAAAAAAAKiIQUAAAAAACAgGlIAAAAAAAACoiEFAAAAAAAgIBpSAAAAAAAAAqIhBQAAAAAAICAaUgAAAAAAAAKiIQUAAAAAACCgTLMMbxYAAAAAAABNoUcKAAAAAABAQDSkAAAAAAAABERDCgAAAAAAQEA0pAAAAAAAAAREQwoAAAAAAEBANKQAAAAAAAAEREMKAAAAAABAQDSkAAAAAAAABERDCgAAAAAAQEA0pAAAAAAAAAREQwoAAAAAAEBAmWYZ3iwAAAAAAACaQo8UAAAAAACAgGhI8QwfPtyWLnnCFi683zIy6KUDAEB9kftKAGgJTz/1Z5s9+xbv2WEqf5Ys/gPlD9LSU3/5vw1uF2g9SW9I6dGjh82de7uriKmg1HT+vLvc660tOzvHsrOyvWdIJOV15KMt5Xu8VKjpN6USFdapml+pSJXKZDYCt7eYf+CB+6h4N8Hfzq+5+ir3fM6c293zxmKKfWXzxJrOiM+vfvlzl77ad3EVe+K1VjynW/kT9Lgpmftl/7sot46k+obSpqEHUk/SG1KmTp1sxePG2Ut/e8UWPviQrVr9mg0ffqxdccVl3hKto6SkxG6dfZvdfsdcq6mp8V5FIn20caO9/Mpy9ygped9Gjz7RZs2cQQWnjWo0vwCknIqKShs+YpibHzhggG3btt3N1xe5r0TsgqYz4qOeC4WFfVz6DgilcwYVjRaR7HhW+TP7e/+RVuVPWz1uQuO0Xfj158gHUk/GmWefW7O7Yr/3tOX5ZwWnT5/ppqJW1V27dnnPwtTaWTxurGt5VkD+5S9P2ZKlT3rvhv9GhcvoE0+0goJ871WzpU/+yR599DE3H2QZfc/4c89x86KDxxkzZh3RmBJtfdQCqZbZHTt2uAJPVq1ebfPm3e3m27sbb5xml116iS1a9Hid3x2UWmJViCxYcK/3itm8/3WnjRkz2q780ldq0ztIvv/gB3NtUFGRVVUdtKefedauuPxSt2PxP1u9KTaWltbm44QJF9n0797kdkDLlr3glpF4Y6x+7ESK/K1B4jDR4s0vpeEry1fUyS+dAVFjyhVXftl7JZSGt4bSsDi+7dQvEyK3nTfffMvuu/+BOuVCorbBRKxzosWbX34aNlR2RYo75kNpN3589JhPtHjTx4+NyP1OQxIRG+0xflQ+a5vr1auXO0B55OEHbPU//tsGDhxQG1P1yzvtK+unJ/vBpgVJZ39/JYrBTZs21SkLFV8/mv+/XDrrM/S6Gg3mz/uhlZZuco1c7V286Sz+Z8yb/2ObO+e20PQntmrVKvdecXFx6LX/OGKb9Pdx3/zWd6ysrMyl63e/e0OT9Y32LBnxLNH2Ow2l89VXfbXOPqX+vqeh8ifatiMN1TdauoyKN52jHTcF3S9HS5/I99Vgte6fb7t4V775aRS03tuexZtfQeobQfaVQbYLtL6k90j5ZM8nLii0wfoiCzlxhUJoQ9XOSge/2tinTJlU529m3jzdLVO5p26r38qVq70lzJ09j7bMU089475Dj8aoUqzP2bZ9h/t7qb8+kp+XbwMHDHTLqJDXxqG/TQUFBQVu2rlLZzdtCX4B3VS+f//7c6ywT29XAfrVr39r/fv3c4V8rIJ8V7T48WNHFQnx40gPvecLEquJ1q1bEvLL23nHk4Y+5WlBfr77HL2vyuy0ad/x3k3cNpjIdU6kZORXkDSMGvNPB4v5REta+oRiI570kdaIn0SUzxWVlaGyNNu+9rWrbf36D7xXDwuyrxT2g02Lls4bN26qjZmS9SXuzLNOHqjSLaov/fZ3i1xvC7+MVGX74MFqu/vHP3XP27tEpPOQwYNc/Knx5ODBg3bWWWd474QOWEKv6UDyhONHea+EKa11ALlrV5l7ftNN0+rUN84844xm1TfaqmTEc5C6Vv10rp8v4u97mip/om07vmSXUfGmc7TjpqD75cbSx/f662vc36hXUaesLDvllJPtj39c6pZXGun7g9Z727Nk1DckWhyqXI+2XaD1Jb1HilpR7/7RPFcJ0I7sxZdeOuIs3WOLfmebN2+2OXO/771i9vhjj7oN32+tU2ve4EGD6vRmqE+tuCp8mlomklrXFcz1z+rqOlvtKCZNnuqeq5XwngU/cQXJnP8ZWsfQolqfvqrY3DDdFXD6nY/+7tduA0mVlkP9blUymsNPW50xEx0062A53E3ztlB6h/NYO9nG8l3fv+CnP67TU6KhdA7SI6X2u7z8E8Xd+vfX18aYHz+RPTAa4lcUGlvOj9Von5No8eSXn4YN5Zd/xrN2O41Iw/rbaZBtUMtoZ3H1NV/3XjGXz0VFA+2ar13v/i5R22Ci1rklxJNfWmepX3ZFaigNlc5vvbWuNj0SFfMtIZ708c/+NHWG6Je/eMRycnJs8pRvujSsE2NemRQ0noOkYaLFkz4qn7WdaDvXZRDaL2v7qX9m2eeX5w31SGE/2LhY0tk/aDrhhBPctub3kvD526DiU2Vz5P4tFcSTzn7c/dezz9nDD//clXN5oYOWf/v3G2rTWGNOuAOXb37bxarG+dABvt9LRd+vv3v2uWXuM8QvE4jnsCDxHLReF0s6+/WTxsrzprYdlc+qb0SWUb/77a+O6IGbaPGks9Yx2nGTBN0v108ffxvw+XVW9eZSo6O+Xw0ur7/+Ru33+t+V7HpSssSTX0q/gvwCe/OtcGOTKH0j88zfV95w4wwXm36Z5ce8vw34ZZj420pLxypik/QeKQqm7/zbNLezqqqqct2UVMHvGQoin98dWhu7/9CyvXv3dq/LiuWvuq5OGr1bwaauWAqySMtfWRF1mSBUeGlH4NPGpRbb3LzcOtfd6kymXxhFFkqpormFik8HFyp49VDFTxVxnUHzy+Cm8l0HQUVFA9x03bp1bjlpbjrXftfFh7+rurq6Toz58aOBveKJHz9W4/2cWLVUfvkaSsP622nQbVDbTqTt23fWOfOXqG0wkeucaPHmVzRB0jBRMd8SkpU+NV4LW2T6+ILERmulYSLSZ+3aN11Pmnh6z7AfjK6pdNYZScWOGv/1UPkrJ588xk19qkgrPlU2q0t4KjWiSDzpfN74c930jTfWuumHH21023fkdvjXv/7NTf1xJnSZsbZbdecXv76xYcMG91xaugxqDS0dz0HrdYlI56DbTmuUUfGks9Yx2nFTEI2lzymnnOSm9a0OlSui71ejVUONN6kq3u1Cce/Xn/VQ7576mopDbReS6uVPKmi12x9rg1TBoLMo2sHNnFl30FFVDvyNXQ8tE0nXralFWdeMqWvh6cXFrtLqjx4uQZZB8qilVS3lav0+ePCA6+1Qv/CIlu+JlIgYC6K9xmFkfqmC2Zz8aou/vT2uc7JQZjYtSPq05zTUuqvC7CpsqXeSsc1oLJ11oK+DJA3urXJX5a/qSI2pqq7y5hBJjSKiy3l05rxf377ueXHxaW4q9S/vUY8KpbvfkIrgopUbyajXxbrttEfRjpuaovS56qtfSen0aUt04lFp7D8a6z2F9q/VGlJ8OotS/6yodm7qrhoZhA0Fog7qVLCoe6DfXd3fgfrqL6MuaPWXiUbrp52sTwWSCjFdt5hOO93IsznxUJ6oMNfgYz179vRebTrflW979uwNLVVjQ4YMCf9BQIWFhd7cYbXf9aUjvytSo/HTwM6rqfQJEquJ1hL5pe6HvrjTMIK62kbKz89zjTe+RG2DiVznREtUfjUmaBo2GqsxxnyiJSt9/P1QZPpEChIbjS4TsNLbHMnMi3TWkunsn4VcvmKFiyFR9/uGqIFAvQZ18OqPX5BK4klnjf0g/tlgHciLGk0yIrZBXV6i71Ha6Qyyelb4RWFD9Y1U3MZa+jc1p17XnHVqcNs5vuFtpzUkMp113LR167YjeuT6Gvouv+dPkLIlFqm4TUhr/67wdmEpX/6kgg4DBg784cGqz7ynLU/XJ44aNdK6du1iQ4cOsa985ctu56aC9u9/X+mW6dixY2jHdrFbrnu3bnbMMf3t5JNOskOHvrDdu3e7ZXS/+nHjTrMzzjjdPb7+9WvddZpvrFljr732324ZXQN72mn1likoqLOMRm8fNeo4ty7jQstWHayy6k+r3fMNGz50y3Tv3s1OOfkkO/0MLTvSvnbN1ZaTk21Lli61DR+El7n00ktcIfXss8+553L99de56zj939WeKb3/9VtTrVNWp3BlI0b10+Lj0E5Ao2IPGlRkL/0t3MW2Y4cOTeb7li1brPj0YjvxhOPt6M6drXfvXi5P+/fvX+ezlVfHDh1qgwcPsnPOOdvGnjrW5Zd22jt2lLnPqv2ukY3HWJD4EcWyYue0sWNDhd5gt6wOmvxlgsRqomnd48qvr1/neqDU5tfHW+3yyy4N59dLXn7522mcaXjZZZeE8uMoO+vM0902pM88++yz7O2337UXvdhI1DaYqHVOtHjzS2mogcsGe/EX+fB/e8NpmFMnDRv87Q3EarSYT7R400exoWuW/XWNfNSmT4/u4fQJlTFHxJi3LwgSG60RP4kun0XrrgbNZ59d5p43tK/8tN6+kv1g06Klc4cOofLp4ossOyvbjjqqo6sfabwJbYOR+y/lxeRJE90lPXPn/sDOO2+8nRkqP3V71AMHDnif3H7Fk85Km/PPP89dBvE/brvd/vDEf7rHyJHH2fGhuuYTT/zRW1J3bilz6T3s2GGhuK2xH975v7x3zNU3xo8fH/q7EbX1ja9dc5U7mUA8hwUpN4LU64Kkc53yJ1Sfql/+dOx41JHbTtGR2472lVKnjKpX30m0eNO5weOmUD048rhJmtovK30uvuhCN05aY2WL0vzUU092d5zTZym9evbs5fKoPv+7xo49NSl1gGRKRn3j8L4yvJ1I5PakNFe5PvK44Slb/qSKpPdI+bS62m2kfhc/zdcfUErdBHWdqm6ppsG/tNy1117tKqO+nFBhEHn9mQ4i9DmLFy/1ltAyOVGXmTjxutp1EZ2B9J8ryEVnFvV3OmuuzxGtX6pdk9yUiooKN92/LzEDE+ssmnYCOlM0YvgI91qQfL/rrvnuukJ14fzOt78VKmw+9t45bOmT4YEQdZZu+LDh9n9+/3v3up5feeXlbj5YjEWPH1EcqNIm/rK6Y4AXPoFiNdHKy1suv/xW8USmoa6vVr7qM9TApu/Sbfn8s4OJ2gYTuc6JlIj8qn9Nrv/wBUnDeGO+pSQtfV6OP31aI34SXT43JMi+MtW1dDqrnNV2pR4VStfhw4bZ73//n+49f/+livS3vjnF9aBSjydZcM99bnr7f3zPTdu7eNL5wgvPc9Onn/4vN/WtePVVN1Xdwaf0VjqqbFCvy/p0d6TI+oZuB5tKklFuBNnnNpTO6skS6frrr60tbySy/JHGt52aOnW/1hBvOgc5bpKm6qJKnyf/9H+bLFv00HtKW9G8yv2GJLsOkEzJqG8E8ZvfPhp1u0DrS/pde4BE80eOZxTr9klnW6T+5TUAALQVugRIB5c6gFTDKwAgvbX6GCkAAABAW6K7nGgsGj3mz7vLnRXWGeH6vV0AAOmJhhQAAAAgwsknn1TbJV+Xpujyn1m3zK4drBMAkN4yzjx7fM3uin3eUwAAAAAAADSGHikAAAAAAAABZabJYPsAAAAAAABxo0cKAAAAAABAQDSkAAAAAAAABERDCgAAAAAAQEA0pAAAAAAAAAREQwoAAAAAAEBANKQAAAAAAAAEREMKAAAAAABAQBlnnTO+Zlf5Pu9pwyZMuMimf/cm7xkAAAAAAEByXPmlr1hNTY33rPVlnHX2+JpdFU03pAAAAAAAAIBLewAAAAAAAAKjIQUAAAAAACAgGlIAAAAAAAACyrSMDG8WAAAAAAAATaFHCgAAAAAAQEA0pAAAAAAAAASUadZ27sUMAAAAAADQltEjBQAAAAAAICAaUgAAAAAAAAKiIQUAAAAAACAgGlIAAAAAAAACoiEFAAAAAAAgIBpSPMOHD7elS56whQvvt4yMDO9VAAAAAACAwzLOOmd8za7yfd7TltejRw+bNu07Nmb0iZadnWNVVQetpOR9u+/+B2zXrl3eUsmnhpR7FvzEtm3bbv/27zdYTU3r3RZ69uxbrHjcWJc+FRWV9pe/PGVLlj7pvds+KX2vuearNnzYcCsoyLeXX1luCxbc6717WCr+9vYocH7dGsqvYvKrLWDbaVpT6aP90vd/MMcGFw1Ky7QrLi62a67+itvuhfhpGX46Dxw4wMWh6j+rVr/WYNmK5iOdk4N0To4g5XPQOlsQTdXrJky4yKZ/9yY335BFix4PvN9o7LMWPviQLVv2gvcszP99AwcMtMLCPjb1m99u1WPGpiQ9v6LU/VS/mTVzRug7j61d5s233mrW9wWt89fPr29+6ztWVlbmvZtaOgwcWPTDAwc/9Z62vBtvnGZnnXmmPf/Ci/bcsmX22Wef25jRJ5hlZNjatW96SyXf7t277fU31thTTz9jBw4c8F5NvqlTJ9tll15ir/5/K0Pr8rT16dPbLrjgfPvwo422ZcsWb6n255vfnGKjRo6ynTt3uI16Y2mp/f3vK713w1L1t7dH35wayq9RAfLrMvKrLWDbaVq09NF+qWhgkS1evMRVas4883RbvCRYZTAV3H/fT03nDpY9/7y9+NJLtenzxpq1bbay2h7ddtts6969RyidX3Dp3KN7dzv1lFNC9aDP7J133vWWQrxI5+QgnZMjSPkcpI4dRLR63dChQ2zcaafZRxs32ptvvuW+R4+8vDyrqqqyefPv9j4pOv+z/uvZ59zx4D/+8Zp7vP76mjrHYVonNQT079/ftm792P759ju2efMWd9zWFt137/8O5VfGEfmlY0x/nYPUsYMIUvebc8d/uEaUp5951q2PugmMP/ccyw/VdV577b/dMkFEiw1fe8uveGWcfe74mrLdyeuRoktnZPr0mW4qCqL6lbUgLWzKrNEnnugqvr6lT/7JHn30MTcfZBl9jwLKp8JhxoxZR/RIibY+Dzxwn7skaMeOHaHlxrnXVq1ebfPmBS9U5PHHHnWFkd8rRr/hkYcfsPXrP7A5c7/vLZV8OtDQxhpLa3MkP4/9FuiGWl/93/6df5vmnutvfv7IQtdjac7/DP321usk1O4kI78eW/Q7q66urhOrtfnVirHaHsWbX2213EiUeNPHj9UGy5ZQ+qh8Hz5smN1xx1y75mtX2/nnnWtXX/N1t9x5489t1ncmU7zpozNoH3zwQe1+WGeTFvz0x/bsc8vs4Yd/XlsOaJ+m/VtJSYlVVFa6+cj9nNIr2j63PUtEuSqkc9NI5+QgnZOjpctnURrq/abqbL6m1idava6hz9cyv/vtr2z1P/5xxDFPU9/lf1ZDPVB8/jK6WmDBPfe5GGppLZFfuuJBDUaJzq+Gjptq637ecVNDx91PP/Vn1xBW/9gqntiQ1siv1pb0MVI+2fOJDSoqcont84PNp65DatxQF0FtYJs2bbIpUybV+ZuZN093y1TuqXQB6D9WrlztLWGuRSzaMk899Yz7Dj0aowJen7Nt+w7391J/fSQ/L991Y9IyapDRzkJ/GwvtRErWr3dBKkobfW+vXr3c89ZSUFDgpp27dHbTWNXP44b4v90X+dszQv8QXLduycuvthar7VG8+ZXqeZGo9PHVT59XX/17aJk8+93vfu0qES/97RVXvt937wI759yz3TJtWbzl86pVq4Jt8/nhLsiqGJaXV9Tu5/xxxYLsl9uzROwHI9N50jeuD1VMq2xJvd5PpDPpnAykc3Iko3yO9n6kpvan0eoSe/bsdfkX+X1f+9rVLi//+te/ea8c1tR35XbNddNvTJzoDuw1TuX8eXe5A3TfRRde4Ka33zE3aQfl8dY3Ep1fTcVPkOMmneDXcbfSVieN/IYVdxVIRCOKxBMbcvFFF7rpHXP+Z1o0okiHgUXJvbTnrbfW2bhxp7nuQJeGKqx5eblHXNIzbdq/2fr179u8eT+yDRs+tJde+ptbNis7y5Yvf9Ut8+Wv/IsLrsmTv+m6Q/mPyK5DX9EyoQK8qWU0r+/Q4/rrr7PKykp79tll3rthN914g33++eeuxU9/ry6LEy6+yLKzskMV7nDBofXrFgqyWbd8L1SYvOi6S335y1+ynWVl7m+CUCvmOeec5bp49evb1/71W1Ptk0/22YknnmDHHNPf/vDEf3pLJt+KFa+6bmkvvviS90rz+F356ndja/y3H+9++xNP/NFbEkFoO2np/DrX5demBvOrNWO1PYonv9pyuZEo8aZPtFhVt1Q1nmzestleeOElO+vM0+3888fbn/70Z3dWpa1LVPnsU7fjQYOK7Be//LWrLPnlgLrorlsX2oeH5mfdMttGjRppRUUDa8tnf788adJUV174j1Tp0puIdNbB5C2zbnZprHru9753e22lmnQOI52Tg3ROjpYunyM1VmeL1Nj+NOi+8tlnn6tz3Padb/9r6BjpkD3YwAnppvbdp5021jp0yAy99zdb8eqrbqiH4tDxYZ/C3u7vZPr0m0LHg+tDv2toKM5mhI7nJtnpZxS7KwMiLydJpHjqGw3RZVeK95//4ldHxHSQ/GosfqLV/fztS7+nb7++Lm21HjmhY+k//7+n7A9/OLJuGE9syIzp33UNKENCvytZ+dXakt4jRRu9GiTUZU/dka6+6qv2q1/+3HpGtECq1Ut0RtB/aNnevXu712VFKLM1sNWSxX9wXabUHUkFeqTlr6yIukwQGihHvWJ8ChJ1W8rNy61t8RO1zPmFWv3CLYi8vK7enNnAULB3ysqyY/r3815pfS3ZutjWf3t71PL5FY598isxmptf6bLtxJc+0WNVZfaQIUNs9q03h/Yb1bbgnp/ZJ3s/8d5t+xK1vavCpMHk1PX+vffe814Nxt8v68xiPPvctiwR6azLG0rWl1hhn95294/m1an/BEE6B0M6R0c6J0dbKJ8jNbQ+zanXKZ90jLRy1arangr1NfbbddnWrbNvc5eQ6NIeXdqiZXUzEr+3kmg95Fe//q07dlScTZx4nXutpSQ0v8aF8yuez2w8v8Kayi//sjml9RVXftml4wXnn+/WrSGNf1ew2GiN/GpNrXb7Y21AalDRJTXaCGfOnOHnkTM6tCHpOiv/oWUiacObdsN0N3iOCvHTQwGhAviaq6/ylgi2TFsSeY2gChRdz6bfoMJJDTeprLHfLqn+29sj5Ze/0yS/Wlc6lxtBBIlVdSV+YOF9bh+hnf/BUKV+7pz/cPseVe5TrVLfGFWsbgodxOikwPz5P/ZeDU7p2p72ua1BlVTFocYSUFppwL4pMV4CTDpHRzonB+mcPPGWz9E0p1539dVfdY0eL730svdKfPTbNBZlJF2aovXR+unYce2bb7lLVdq6yPyqP3ZMIgSp+6luow4LukuP30Civ1PnAK1bZINVU2KJjfr5tWZt+8iv5mq1hhSfElqZENm7Q12ANAiOWs4iH8q4SDqDqExSgE6aPNW9NmbMaDf11V9GgVB/mWi0fgMGDPCeHW6B1XgvNQkeAVW/XYMe+sGtjUCteTt37nTPW1NLH0z4v90X+dsTnc7pIFn51RZjtT2KJ7/SIS8SkT6++umj/cQbr69x3c61T9L1+xoYTrdYPHiw2q688nK3XFsW7/aus8DqjaMzy9rX+pWmWAXZL7dniSxXlVaiS5AjTyQFQToHRzo3jnROjrZSPvsaW59Y6xJaVsdIDfVi8DX2XRoXZe7c271nYfou9U5qSk69hpaWkOj8ile0/PLVP27SJVENyc7OspyccM+R+hIVG76c7GxvLjUlfYwUDXKj6yO7du3irg37yle+bCccP8o1nPjXh3Xs2NEmTLjYLde9Wzd3/dXJJ51khw59UXt92Zw5t7uxVs4443T3+PrXr3WF9xtr1tTezkkb6Gmn1VumoKDOMmoxHDXquNrr1KoOVln1p9XuucZNke7du9kpJ5/krvPSOn3tmqtDAZhtS5YutQ0fhJfRGCkKLl076NOYK01d99YQNdCcfNIY69u3r0ujqVMmWZ8+heHv8tanNSi9dU1cp6xOzbpNtbqWXXjhBTYitIHqjIU2cKXlsGHH1n5e7W/vF/nb+9RJZwSj2G/x/Opb2ECsevnVirHaHsWbX2213EiUuNPHj9WGyhYvffS5/i0Xv/rVf7FPP/3MVQDGjDnR1r//QUy3CUy2eMtn7ZdPG3uqlZXtth07dtbuM/XQ/ivyOm5VmjSva6L1fuRYB0H2y+1ZvOmsynXRwIG1dRp9liqjy5Y978ZeI53DSOfkIJ2TI950jlY+S5A6m6+p/Wks9ToNu6BBgnWb38Z+V1PfdcopJ9mY0aNr98s6HtTts3V7Xf93jRo50o4/fqQNCMWZv4zG+tClMv44KokWb31Dd3E9bezYhOVXU/HT8HGTV/cLHTdpXJLzzhtvxw4dbEd37my9e/eqTee3337XXvTG+fTFGxv6DceHHnXyqzh8l66Wyq/WlhnKu6T6tLraXavlX7KjeY3OrW5APnUX0q2XNBKw7o6j5a699mrXCOJTBVcbsP/QHXP0OYsXL/WWCLdaRltG12356yIKSv+53+qmVnL9nVre9Dmi9dOZy0TTrbH0XbqmTuvQq1fvFvuuWFRUVLjp/n373TRWp5xysks7XbIl6ual53rdT+e2+tvbI42ML83Nr5NPPqnR/PK5/HqZ/EqEePMr1bedZKePupirF6L2P6Wlm+rsM9qieMtnv9ut9n/aziMffvkcRJD9cnsWbzprkD6/TqNpbm6ei0O/i3RQpHPTSOdgSOfkSEb5HKSO7WtqfxpLve7ss85y02dC+8vGNPVdd//4p+4kuv9dmirfI48H7/9Z+Pa69ZdRz6WWEm99o6n88gWpY/uaip8gdRsNmK96zBWXX1qbhmrYuO/+B464a0+8saHPTHZ+tbaMs84ZX7OrfJ/3FAAAAAAAAI1p9TFSAAAAAAAA2gsaUgAAAAAAAAKiIQUAAAAAACAgGlIAAAAAAAACoiEFAAAAAAAgIBpSAAAAAAAAAqIhBQAAAAAAICAaUjxduubZmFPPthHHn+K9AgAAAAAAUFfGWeeMr9lVvs972vKysrKt8JhBlp/fwzI7dLAvDh2yvZ9U2pbS9626uspbKvnUkDJs5ElWXXXQ3n5ztfdq8mk9evTua127FthRnTrZrp3bbNNHJd677VfQ3zVg0HDr1r2Xi43PPv3UdmzbZDu3b/HeRbKQX+0PedG0ptJH+6VBx46yozt3Tcu0yyvoYb0L+4e2+3z3nPhpGX46H31019r6T/nunSmxj29LSOfkIJ2TI0j5nMhjh2h1Ce0v+w881rrm5tcus6dyd7O+L2i9xf99nTvnWlZ2jr29dlWrHjM2JVXzK9o6d+/ZxwYOHuE9O9KW0g8azNv2rsOAgUU/PHDwU+9py+s3YIhL7J07PrbdZdvsUKjgzS/oboe+OGT79u7xlkq+Tz+ttr2fVNiu0HodOvS592ry9elXZLl53UIFxAHrFAr+A/v3uYBv74L8rj79BoYKn2Ns964dVhbKh05ZWdajV187cGCfVVcd8JZCMpBf7Qt50bRo6aP9khpRtm35KFRBOCpUKelt27du8v469R3nemJmuEpOeSiN/PTRPlH7RiTGoKHHWadOOaH6TzidVRnN79bT1Tn27/vEWwrxIp2Tg3ROjiDlc6KOHYLUJYqGHOcOyreHDti1Pl988UVomUJ3kL53T4VbJoig9RYtp+/MObqLVR3cb5+EvuPT6qo2u29K3fxqep2P7twldDzfI/T63tDr5e59PY46Kss1sn70wdvekqmlwzEDi354MIkNKYX9i+yzzz61j95/2w6GMlqZULF7p+2pqBtAamEbNHSk9T1msAsKs5o6BbNa2FT51XL9Bw5xn6tHTeif3yATZBm9N2T4Ce717j0LXYubWtnqi7Y+uiRIr3cJBevgY493n5eVk2OV5bu8JYJRIbE1VJmXcEA2b+NKNKXjsSNGN3sHGeR3DRo6yj4PxcYH773pYmPfJ5XWI5QnHTse5WIEwZFf7Uu8+ZXqedHS6aMzSJ06ZXkNKVnWuXNX15CifYga/pvznckUb/ocPHjAdm7b7PbDSh/1zNT+8PPPP3cVLaXBcSec6vZp2r91zcsPPQrcfOR+Lsg+tz2LN52VljqBVD+dD4bKW9L5MNI5OUjn5Ig3naOVzxLLsUNT6xOkLqED988//8w2bnjXLaPvUX4dCq1P/fpGvN+lGDpm4LHuN3+4/p+27eNS930t2YhCfjX8XdHW2W9IUSOKeqroPf2NGnv2VO6yWI+H24tMNQgkk7oU6cyfNg5f/e5ZKkzVWqYugqUfvhfKrL2hwnVonb9RNyUt89ln1a7hw38oiHxBlinftd19hx6NURDoc6qqDri/l/rrI2p1U7czLaN11llN/W0s2mpXNZ1pELVgNkeQ36Xv0GVePv2N0jw752jvFQRFfrUv8eZXqudFS6ePdvhHHdXJRo0pdpWOsp1bXfk+bOTJ1q1Hb7dMWxZv+uyp2BVom1djk/Zv6rKsfbm/n/MF2ee2Z/Gms9I4Mp17Fw5wZ+rUEzYS6Uw6JwPpnBzJKJ+jvR+pqfXRe9HqEnqu47ghw05wx2v+2JLqcVFfvN/lH2epoSBZjWrkV8PfFW2d1VCkbfvTTw8v16N3Pzet2F3mpqnIXdpz8OBn3tOWd2DfJ5aX3z20cRSGCs6+oczKPGLjUEarAN244R3XeqYWM9cLJMNqW7RU2dWZw3VrVrpKsP+IbKUMsozm9R16qIVOvWVUgEfSNV81X9TYO2/9w/39gf2fuPXPCP3zW/O0ftpZrH/nDdd1Sq2Ovfr0t+qqKvc3sTrcRarxVspkUrpro9Nvi0djv0tnhHWNn17X9Y/9Bgx2G6W6o+Uc3dm2fbzRWxJBkF/tSzz5lQ550dLpoy6wKsu1H9hdtt0Kuvd0Z3W2by210g+bd91yMiVqe/epC68qXls3f+j2kX45oC7V+/ftcfPr31kTej3XLefHWJB9bnuWiHRWr9djioZZ/wFDXZ3m/XfX1lZQSecw0jk5SOfkaOnyOVJjdbZIja1P0LqE/l751a1HL7ceHTp0tG2hfeWObZvd+5Hi/S4df+3bW2nZOZ3Nvyogr6B76FjtM7ffbgnkV9O/vbF1Vn64BtCIY/oBobJBx8/NHf+lPUj6XXtUwGowV3UP+uKLQ9a3/yAbNXqc69rn81vE1BLpP7RsdvbhFjZlslq+daedYSPHhAJoiCvQIwVZJggFqFrZfAoSddXy19OnVj9/B+JPU0lLtgZ37NjRmzNXYGZmdqgTE4gd+dW+NDe/0iUvWjp9VGa7ytqQ4+zQ54fsow3vuu6t7UWitne/cla+e0fMn5mofW5bloh01gmbvXsrXJ1m6IjRMW+vpHMwpHN0pHNytIXyOVJDfxt0X6me9johrkaxN1a/bJtL37eevfq5dWtIPN8lek/0PTp2VJwVxtjbP1bkV/y0Dev4Wb89lbXa7Y+3f1zqGlR0SY0SWl37IqnFUS2R/kPLRNIgPu+ue80NnqMWPnUT1F131AvEF2QZtA06C+xTy+V7/3zd5Z+o0QptC/nVdpAXTQuSPqp8qLur9hGqZBz64nMbMux4t+9R5T7VKvWNUcVKZ5B0UmDjB+96rwbHPjc6VVIVh0pfpZXqNr37xnZQQDpHRzonB+mcPPGWz9EE3VfqBLh6IvgH3Po7nWzWugUVS71Fv1fL6G907FhZucv1rGjrUim/mkN3+BFd6pTKWq0hxacMVYZH9u7QNZQapEctZ5EPBUkknUHURqUAXbfm7+61rrkFbuoLskw0Wr/IjdZvZdN6ppOWPphQeqpLmk8FgFqeqw5y15HmIL/al3jyKx3yoiXTR/uJytDOXpdmap+kiry6veoWi7qzXLcedcfDaovi3d51Fli9cXRmuf6+NhaJ2Oe2ZYksV5VWovF5YkU6B0c6N450To62Uj77GlufaPvK7KO7uGl9HTp2sA6NjCnS3O9qTIfMwz0xWgr5FT/dJlnHz34DTqpK+hgpOuun6yM7HnWUu86qZ+9+lptXYBrl9/C1VjWuJVqNFyqQNWiOAiUjI8O1VkvR0ONCf9fdtfjpofFNdA2YPsMfFTnIMnq9S1ddrxm+5ku3hdJlRHqu6+WlQ8eO7j31ktG69+k70AWg7tXtLxO+k4/VGV9F39fUdW8NURcsVdo1aK0/WJC+Mye0Pq0ZjEpLDbDb3FHUg/wuNaYpjZVHig+lX1aoQIhMZwRDfrUv8eZXqudFMtJHn+tfyqNr9tXVPCMz0/Lyu9m+fXtq9xltUbzpo/1yQbeebv+qio+/z9RD+6/Ia6I/Cy2jeV1/rfe1n/avxdZ6RNvntmfxprMq1zk5nWvrNLqmXbeR3LVzq7tDAukcRjonB+mcHPGmc7TyWWI5dmhqfaLtKzUOhgZg79Il10IHZaH3ctxxnG57rbFw6t8FJp7vEsVJXl63UFzluGX0XRrrQ5eLaDyPlkB+NfxdsayzhuTQ96qHTHPSsD3JdKNDJZEaKXStln/JjubV+KBuST4l/JbSD1xGKUO1nLomdeh4lLdEuEVSo3z7D90xR58TOVp4kGV0nZ2/LqIgi3wuaiXX36mVT58jWr/IblWJoh2NvkMbhqgQ0XO93prU6ik6uGiOIL/r400bXDrrekKlf1bW0S2WzqmO/Gpf4s2vVM+LZKePupgr5rX/OXBg7xF3oWhr4k0f/VbR/k/beeQjFkH2ue1ZvOmsOoRfp9FU6aM49LtjB0U6N410DoZ0To5klM9B6my+ptYnyL7S3U01tF/sUzjALaNl1bCxpfR9b4nD4v0ufabuSuMvo6n+Rj2XWgr51fB3xbLO+QU93bRiV2qPjyIZZ507vmbXbs4eAwAAAAAARJP0HikAAAAAAADtVSbNKAAAAAAAAMFkakAZAAAAAAAARJdZQzsKAAAAAABAIJneFAAAAAAAAFFkZjBICgAAAAAAQCDctQcAAAAAACCgTKNLijN8+HBbuuQJW7jw/lCSkCYAAAAAAOBIGWefd35NWdkn3tOW16NHD5s27Ts2ZvSJlp2dY1VVB62k5H277/4HbNeuXd5SyaeGlHsW/MS2bdtu//bvN1hNK43CW1xcbNdc/RW3PlJRUWl/+ctTtmTpk+55e6Xfc801X7Xhw4ZbQUG+vfzKcluw4F7v3cNmz77FiseNdbGRKr+9PQqcX7eG8quY/GoL2Haa1lT6aL/0/R/MscFFg9Iy7VJ1v9PWTJhwkU3/7k3es8MWPviQLVv2gvcM8fLjeeDAAbX1zFWrX2twH4bmI52TI0j5HLTOFkS0ep32l7Nmzgh957G1y7z51lsxf1+0dW6svPQtWvR4m9xHJT2/otT9EpVf0X5Xe82veHUYOGjwDw8cqPaetrwbb5xmZ515pj3/wov23LJl9tlnn9uY0SeYesasXfumt1Ty7d69215/Y4099fQzduDAAe/V5Lv/vp+a2nCWPf+8vfjSS9anT2+74ILz3bppHdurb35zio0aOcp27tzhNuqNpaX297+v9N4Nmzp1sl126SX26v+3MpQPT9f+9g8/2mhbtmzxlkIyfHNqKL9GBcivy8ivtoBtp2nR0kf7paKBRbZ48RJXqTnzzNNt8ZLU2+E3prH9zhtr1rbqCY5UM3ToEBt32mn2X88+5+o///jHa+7x+utrWrXekWpuu222de/eIxTPL7h47tG9u516yimh+uZn9s4773pLIV6kc3IEKZ+D1LGDCFKvm3PHf7iD8qefedatj047jz/3HMsP7Ttfe+2/3TJBRFtnv7z8aONGe/PNt9z7euTl5VlVVZXNm3+3t2Tbct+9/zuUXxlNHscFqWMHEaTul6j8iva72mt+xSvpDSlf//q1VllZaXfdNc82bPjQBc5Lf3vliABSC9sts2bY5MmT7NJQkHTs0KFOwazAU+X3hmn/bv/6ral2/fXXuUenrE61DTJBltH33HH7be71CRdfZKPHnGjPPbfMvRcp2vo88MB9ocLnUjvllJPsf3xvtvu8wUMG2fLlr3pLBLNp88e2ZMlSlx5Kn9LSzXbxRRfaoS8OxRTwiaZ0/MH35zZ7B7l+/fv2+9//wV02pQ2toULj1ltmudi4/fY57re/8cZau+SSi0I76u6hGPmbtxSCiDu/3o+eX7fMmhnKrz12xx1z7YMPNtTNr5fIr1jEm1/+thOZFxMmXOgqtqmQF/Gmjx+rDZYtofQ544zTLT+0s//Nb35nhX372qBBRa4hRfuQy0PlenO+M5niTZ9G9zuHwvsdnWn62f33un2a9m/az5122lg3H7mfC7LPbc/iTWe/oqlGFPVAUVrr4TeikM5h8aazYnbZsuePiOet27YRzxFI5+SIN52jlc8SpI7ta2p9gtTrvvKVf7F9+/bbj3/8v90y+h4d2x08cPCI+kZT3xVtnf3yUgfl6j2h9/Q3X7/ua/bmW2/GfHwVVLz5tbmB/NLxZZ38ClDH9jW1Pg0dN9XW/bzjJj+/7r77J24ZfY+2L+136h9bNfVd0X5XY/l13bXXuB4wLZVfrS3ptz/+ZM8nNqioyBWwvvpnvNStTK1l6iKoLq+bNm2yKVMm1fmbmTdPd8tU7ql0XaL8x8qVq70lzHVlirbMU089475Dj8aoxU+fs237Dvf3Un99JD8v3wYOGOiWUYtc8bhx7m9jsWrVqjZ5BrCgoMBNO3fp7KaxCvKbdCa4ZP1671n4b5TmvXr1sgwGRY5Jt27Jyy//MrjI/EJs4s2vVM+LRKWPr376vPrq30PL5Nnvfvdrd3ZHjfsq3++7d4Gdc+7Zbpm2LN7yOeh+pyA/3AVZXXvLyytq93OqDEqQ/XJ7Fm8653bNddNvTJxoTz/1Zzcu2/x5d7kDyUikc/z7r8h4nvSN6626uip0EFC3lxnpTDonQzLK52jvR2pqfxqkLrFjxw53HDfvf93pTjL7Y0s21OjV1HdFW+c9e/a6WIlc7mtfu9pN//rXljtBFG99I9H51VT8BDlu8vNL+xo/v8TlVzibazX126P9rsbyS7HRkvnV2pLeI+Wtt9bZuHGnue5A6tmRl5d7xMY3bdq/uVasefN+5Fq91MKpZbOys2pbtL78lX9xwTV58jddq5f/iLz8Ra1wKsCbWkbz+g491EKnlr1nn63bI+WmG2+wzz//3L7zb9Pc36uVTq1w2VnZta15Wr9uoYCedcv3QgHzomud+/KXv2Q7y8rc3zSXun/p7OjPf/GrOuudbCtWvOq6b7344kveK83jt1jWb33VtXfnnHOWe71f377urMQnn+yzE0883o45pr898cQfvSURhLaTls6vc11+bWowv/7wxH96SyKIePKr8W3nhJTJi3jTJ1qsqgusGk82b9lsL7zwkp115ul2/vnj7U9/+rMtuOc+75ParkSVzz5/v/OLX/7aVYr8cuCfb79j69aF9uGh+Vm3zLZRo0ZaUdHA2vLZ3y9PmjTVlRf+ozX3XYkUbzrrbHyHDpmhv/+brXj1VdOlzcWh+lCfwt4uxknnsETEsw7ab5l1s4tlHU9873u311bwSecw0jk5Wrp8jtRYnS1SY/vToPU6/X3ffn1d2aV8zAkdm/35/z1lf/jDkXWNIPvuxtZZ++Vnn32uzjHiv33n2+54bOHCB71XEi+e+kZDdAmT0qmh47gg+dVY/ESr+/nbV6Lzy6c4jPxdDeXXd779r6H8OmQPNtFZob1L+u2PtdGrQWLpk39y10xdfdVX7Ve//Ln1jDgjoxY20RlB/6Fle/fu7V6XFaHM1sBWSxb/wQ0Sq+5IKtAjLX9lRdRlgigs7ON6xfhKSkrcoLS5ebm1LX6iVkC/UKtfuDWHNhIN+LRq9Wr3na2tJdchL6+rN2c2MLRhdsrKsmP69/NeQXO0fH6FY5/8Sozm5le6bDvxpU/0WFWZPWTIEJt9682h/Ua1LbjnZ/bJ3uQNxB6vRG3vkfud9957z3s1GH+/rJ4W8exz27J40vnRRx+zW2ff5gbc06U96v6sNNbg+/7Z+SBI52AqKiutZH2JFfbpbXf/aF6demYQpHMwpHN0baF8jtTQ+gTdV6qn/egTT3Rl2RVXftl+9evf2gXnn+/WrSGJ+u2KCR2PrVy1ynul5SQ0v8bFfxzXeH6FJTu/IuOwseUj86u1buCSDEm/tMenCoUaVHRJjRJ65swZddp0RocqFhr9139omUiqiEy7YbobPEeF+OmhTFUBfM3VV3lLBFumrVKQ3hTamahxZv78H3uvpq7IOxaocjl9+sza0Z3VaIW2RfnlF4zkV+tqbNtR/pAXwWJVl1Y8sPA+t49QJeNgqFI/d85/uH2PKvepVqlvTLz7HaVre93ntpbt23e6OynEgnSOTpV7be/z5t3t0koDI06J8VJr0jk60jl5Wvq4IOi+UifANeaFfwCtvystLXXr1pJ0lxtRj772IDK/tH0kWpC6X2P5pc4BWrdYGvB9QX/X1Vd/1X3+Sy+97L2SmlqtIcWnDFWGR/bucLdmevMt13IW+VCQRNIZRDXIKCMnTZ7qXhszZrSb+uovowCrv0w0Wr8BAwZ4zw63smm8l5r6F5glgFrjdVZULfz6zX7B1tpa+mBC+T582DDvWbgA0BmOnTt3tkg6p7pk5ZdfEEfmF2IXT36lQ14kIn189dNH+4k3Xl/jup1rn6Tr93Vnlanf/LYdPFhtV155uVuuLYt3e0/UfifIfrk9iyedNS7K3Lm3e8/C+vTp5c7Gx4p0Dk5pJbrUO/KEXRCkc3Ckc+PaSvnsa2x9otUlhg4d6qb1ZWdnWU5OlvesrkTFmG4VrOOxxnpAJFKi8yte0fLLV/+4KdH5Fcvv0nolK79akzdGSpX3tOVpkBtdH9m1axd3bdhXvvJlO+H4Ua7hxL8+rGPHjjZhwsVuue7durlrvU4+6SQ7dOiL2uvL5sy53Y21orst6KERo1V4v7FmTe2oyKqwnHZavWUKCuoso5a1UaOOq71OrepglVV/Wu2ea9wU6d69m51y8kl2+hladqR97ZqrQwGYbUuWLrUNH4SX0RgpKnh0fZhPY640dd1bQ5Q+p4091crKdtuOHTtr112PWD4n0ZTeuv6uuaOoq2vZhRdeYCNCG6jOWGgDV1oOG3Zs7eepcerkk8a4a/kUH1OnTAot26dOOiMYxX6L51ffwnB+9W0gv7xtB8HEm1+1206dvChMmbyIO338WG2obPHSR5/r3z3lq1/9F/v0088sJzs7VJk/0da//0HtPqMtird8jrbfibyOWxU0zet6eb0fOdZBkP1yexZvOuuuJWNGj66NQ9V/Tj31FHfrStL5sHjTWZX9ooEDa+uO+iwdYOgOMxrjjnQOI52TI950DnJcEKTO5mtqfxqtXqdxMM47b7wdO3SwHd25s/Xu3au2HHv77XePuGtPU98VyzpriIdzzz3H3Xq3OWkYi3jrG7qL62ljxyYsv5qKn4aPm7y6X+i4qdH8OiWcXy/Wu2tPU789yO/yKb80gHQy8qu1Jb1HyqfV1e5aLf+SHc1rdG51S/Kpa9KiRY+7UYd1dxwtd+21V7tGEJ8quMok/6E75uhzFi9e6i2hZXKiLjNx4nW16yIKSv+53yKrVnL9nVr59Dmi9YvsVpUoGllZtB6R6+5/b2upqKhw0/379rtprE455WT3G3TJluh36rle99P54Yd/7tJZ1xMq/Xv16t1i6ZzqNDK+NDe/Tj75pEbzy+fy62XyKxHiza9U33aSnT7qYq5eiNr/lJZuqrPPaIviLZ+b2u/45XMQQfbL7Vm86Xz3j3/qThr5caip0iey/hME6dw0Dbzo1x01zc3Nc9u7f5lCUKRz00jnYJJRPgepY/ua2p8GqddpAHbtF6+4/NLackxjZdx3/wPeEoc19V2xrPM5Z4fvnvf00//lpi0p3vpGU/nlC1LH9jUVP0HqNk3mV72OTU399iC/y3f2WWe56TOhulSqyzj7vAtrysoqvacAAAAAAABoTKuPkQIAAAAAANBeZNbv1gMAAAAAAICGZWqAGwAAAAAAAETHpT0AAAAAAAAB0ZACAAAAAAAQEA0pAAAAAAAAAdGQAgAAAAAAEFCmMdis06Vrno059Wwbcfwp3isAAAAAAAB1ZZw1/vyaXbs+8Z62vKysbCs8ZpDl5/ewzA4d7ItDh2zvJ5W2pfR9q66u8pZKPjWkDBt5klVXHbS331ztvZp8eQU9rHdhfzv66K616VO+e6dt+qjEW6J9Uvr26N3XunYtsKM6dbJdO7c1+JsGDBpu3br3cr/9s08/tR3bNtnO7Vu8d5Es5Ff7Q140ran00X5p0LGj7OjOXdMy7fz9Tpeu+e458dNyFIf79+2x3WXbrXvPPjZw8Agr/fA99xyJkar1qLaGdE6OIOVz0DpbENHqEtpf9h94rHXNza9dZk/l7pi/L9rv8svHxmwp/aBN7qNSPb8a297ba37Fq8OAokE/PHCg2nva8voNGOISe+eOj0MVh212KJQR+QXd7dAXh2zf3j3eUsn36afVtveTCtsVWq9Dhz73Xk2+QUOPs06dckLps8XKd+1wG1h+t55unfbvS16DV6L16VdkuXndrLr6gHUKbdQH9u9zG3KkPv0GhjbSY2x36HeXhfKhU1aW9ejV1w4c2GfVVQe8pZAM5Ff7Ql40LVr6aL+kRpRtWz4KlblHhSolvW371k3eX6e+41xPzAxXydF+x08f7RO1b0RiqCLaPxRrOmGzd09FKOa6hOo/PWxPxS47GIpFJEaq1qPaGtI5OYKUz0HqbEEEqUsUDTnOHZRvDx2wa32++OKL0DKF7uBa5VpQ0X6XXz4e2L839FvK3W/S46ijstxB/EcfvB3+oDYmVfMr2vbeXvMrXklvSCnsX2SfffapffT+267ioMCp2L0zVJGoG0BqYRs0dKT1PWawCwpdghRZMKuFTZVfLdd/4BD3uXrUhP75DTJBltF7Q4af4F7v3rPQ1EqolsH6oq2PLgnS611CwTr42OPd52Xl5Fhl+S5viWAU1GpgUnoofVTh0nodPLg/poBPNKXjsSNGN3sHWRVa/62hgxQJb2hHFhqDho6yz0Ox8cF7b7rfvu+TSusR+u0dOx7lYgTBkV/tS7z5lep50dLpowPcTp2yvIaULOvcuatrSNE+RA3/zfnOZIo3fQ4ePGA7t20+Yr/z+eefu/2O0uC4E051+zTt37rm5YceBW4+cj8XZJ/bnsWbzgXde4YqtAVuH690rt+QQjqHxZvO0epRpHMY6Zwc8aZztPJZgtTZfE2tT5C6hA7cP//8M9u44V23jL5H+XUotD716xtNfVe031VbPoYOytXrQd+j36nGgz2Vu2rjJ9HIr4a/K9r23lr51dqSPtisuhTpzJ8KWF/9S3pUmKq1TF2G1OVVrVv9Bw6t8zfqpqRlPvus2jV8+A8FkS/IMuW7trvv0KMxCgJ9TlXVAff3Un99RK1unTvnumW0zjqrqb+NhdIiMj16Fw5wLXnqKdOa1PIoasFsjiCXbek7dJmXT3+jNM/OOdp7BUGRX+1LvPmV6nnR0umjHf5RR3WyUWOKXaWjbOdWV74PG3mydevR2y3TlsWbPjqQD7LNq7FJ+zd1Wda+3N/P+YLsc9uzeNPZj7dol/GQzvHvvyLjubF6FOlMOidDMsrnaO9Hamp99F60uoSe6zhuyLAT3PGaP7akelzU19R3RftdanhQrHz66eFlevTu56YVu8vctCWQXw1/lz47cr3rb++tlV+trcPAosFJ7ZFyYN8nlpff3bViqQdHZofMI1qcldEqQDdueMe1eqnFzPUCybDaFi1VdnXmcN2ala4S7D8iuyEHWUbz+g491EKn3jIqwCPpmq+aL2rsnbf+4f7+wP5P3PpnhP75rXlaP+0s1r/zhuvypNa5Xn36W3VVlfubWKhXzDFFw6z/gKHuN7//7tqYNrqWoHTXRqffFo/DXb/qtr7qjLCu8dPrWdk51m/AYLdRqjtaztGdbdvHG70lEQT51b7Ek1/pkBctnT7qAquyXPsBHeSq54DO6mzfWmqlHzbvuuVkStT27lO3Y1W8tm7+0O0j/XLgk9B+TeN7aH79O2tCr+e65fwYC7LPbc/iTec+fQe6btXqgi21Z/C8Himkc1gi4rmpehTpHEY6J0dLl8+R/DSvX2eL1Nj6BK1L6O+VX9169HLr0aFDR9sW2lfu2LbZvR8plt9e/3dpv+wa1CKOEQeEYk3HY80dTyQI8qvx397U9t5a+dXakt4jRQmuwVzVpemLLw5Z3/6DbNToca5rn89vEdMZQf+hZbOzD7ewKZPVEqY77QwbOSYUQENcBkcKskwQClC1svkUJOrS5K+nT61+tQHlTZtLDTp791a43zx0xOg66dNaWrKLZceOHb05nbXrbJmZHdrEb27PyK/2pbn5lS550dLpozJb7w8acpwd+vyQfbThXde9tb1I1PbuV87Kd++I+TMTtc9ty+JJZ1Viqw7GP2YR6RxMvPUo0jkY0jm6tlA+R2rob4PuK9XTXifE1Sj2xuqXbXPp+9azVz+3bg0Jsp5BfpdiQsdjWqalkV+NC7q9JzO/WlOr3f54+8elrkFFl9QoodW1L1JeQXfXE8R/aJlIGsTn3XWvucFz1MKnboK66456gfiCLNMWKYjVerfxg3fd+uu39+4b2yVC7U1kV2f99vf++brLP1GjFdoW8qvtIC+aFiR9VBFQd1ftI1TJOPTF5zZk2PFu36PKfapV6hujipXOIOmkgPY/sWqv+9xkiKy0+ieIVPkVTWM5+CSdo0tEPYp0jo50Tp54y+dogu4rdQJcvSf8A279nU42a92aI+jv0l1uRD342oNUzK9Ytvf2ll/NlanLU1qTMlQZHtm7Q9dQajAbtZxFPhQkkXQGUQ0yytB1a/7uXtNAbpGCLBON1k9nknx+K5vWs6X5PVt0/X5ra+mDCaWnuqT5VACoxTMRZ/DSEfnVvsSTX+mQFy2ZPipnK0M7e12aqX2SKvLq9vr22lWmO8t161F3PKy2KN7tXWeB1RtHZ5rq72tjkYh9blvW3HRWV2uJPEmkSxpEUw1UHwvSObh46lGkc3Ckc+PaSvnsa2x9ou0rs4/u4qb1dejYwTo0MqZIU789lt+lWwXreMxvEGhJ5Fd00bb3ZOZXa3JjpOxP4hgpOuun6yM7HnWUuzasZ+9+lptXYBrl9/D1YTWuJVqNF8ogDZqjQMnIyHCt1VI09LjQ33V3LX56aHwTXQOmz/BHRQ6yjF7v0lXXa4avU9P1y7qMSM91zbJ06NjRvacKkNZd1zkrAHWvbn+Z8J18rM74Kvq+pq57a4g2vpyczrW/Wde86dZYu3ZuPWIE5WRSWmqA3eaOoq6uZToY0WC8/iBISsucUDr7n6fGNKWx8kjxofTLChUIkemMYMiv9iXe/Er1vEhG+uhz/Ut5dGCrruYZmZmWl9/N9u3bU7vPaIviTR/tlwu69XT7V1V8/H2mHtp/RV7H/VloGc3r+mu9r/20fy221iPaPrc9iyedtbzSKfKhQfmUluqZqwY80jks3niOVo8incNI5+SIN52jlc8SpM7ma2p9ou0rNQ6GBmDv0iXXQgdlofdy3HGcboOrsXDq3wWmqe8K8rt86sGn71WPi+akYSzIr4a/K5bj02TmV2tL+hgpaqTQtVr+GRnNq/FBXYV8SvgtpR+4zFKGajl1TerQ8ShvCbMOmR3dKN/+Q3fM0edEjhYeZJnCUDD76yIKssjnolZy/Z1a+fQ5ovWL7FaVKPoO/zdrqnXWd/ndtVqLWj1FBxfNoR2o0k4bvGgnqud63ffxpg0unXU9oX5/VtbRLZbOqY78al/iza9Uz4tkp4+6mCvmVQYfOLD3iLtQtDXxpo9+q2j/p+088hGLIPvc9izedE4U0rlpiapHkc5NI52DSUb5HKTO5mtqfYLsK93dVEP7xT6FA9wyWlbjYGwpfd9b4rCmviuW/U5+QU83rdjV8uNtkF8Nf1cs23sy86u1ZZwz/oKanbtSu7UIAAAAAAAgEZLeIwUAAAAAAKC9oiEFAAAAAAAgoMxWvmkPAAAAAABAu0GPFAAAAAAAgIBoSAEAAAAAAAiIhhQAAAAAAICAMq2mxpsFAAAAAABAUzJpRgEAAAAAAAiGS3sAAAAAAAACoiEFAAAAAAAgIBpSAAAAAAAAAqIhBQAAAAAAIKCMs8efX1O26xPvacMmTLjIpn/3Ju8ZAAAAAABAclz5pa9YTRu643DG2ePPqynbtdd7CgAAAAAAgMZkGvc/BgAAAAAACIQxUgAAAAAAAAKiIQUAAAAAACAgGlIAAAAAAAACyjQGSQEAAAAAAAgksy3dQggAAAAAAKAt49IeAAAAAACAgDIzMrw5AAAAAAAANCnTjJYUAAAAAACAIDIZaxYAAAAAACAYxkgBAAAAAAAIKNMy6JICAAAAAAAQBD1SAAAAAAAAAso4+9xza8p27/eeJs+vfvlzKyzsY2+++ZbNmft971WzOXNut9OLx9kVV37ZeyVswoSLbPp3b7JFix63JUufdK9dc/VVdvHFF7nPkW3bttuatWvt4Yd/7p6j7Rg+fLhdc81Xbfiw4VZQkG8vv7LcFiy413v3sNmzb7HicWMtOzvHKioq7S9/eao2v5E8gfPr1lB+FZNfbQHbTtOaitUePXrY938wxwYXDUrLtCsuLg7tT7/itnshflqOttN169bZsmUv1NZrFj74kHuOxPDjeeDAAW57r6o6aKtWv9bgPgzNRzoDSHet0iNFlTU1fqjhY8CAAd6rYS+++LfQ/zWukSTSCSec4KZ+xe7GG6fZlCmT7JNP9rjGFVVENH/SmDGuUoy25corL3cH5Tt37vBeOdLUqZNt/LnnuB2x8lPLKo+1s0ZyXXlFwPwaT361BWw7TYsWq3q/IK/A7Uv03rXXXu1eTxezb73ZcnPzbOmTf6qTPiNGjPCWQCIo3rSdDhkyxHsFLWHixOusV6/e9vQzz7p4Li3d5NK9fr0S8SGdAaS7DgMHFv3wwMHPvKfJce2119ixxw61nz3woE24+EL78KONtmXLFveepl/5yr/Y54cO2fLlr7rX5Otfv9Z27thhzz//V9dQMvvWWbZ+/Xqb/b3b7O133rUNGz50761cucp27drl/RUSRQ1XP/j+XPvss8/snVB6x2r9+vft97//g2VkZNi4006zjaWl9ve/r/TeDbv1lllWWVlpt98+x+XnG2+stUsuuci6d+9uL/1NDWwIKu78ej96ft0ya2Yov/bYHXfMtQ8+2FA3v14iv2IRb375205kXkyYcKH1SJG8iDd9/FhtsGwJpc8ZZ5xu+Xl59pvf/M4K+/a1QYOKbPGSJ92+5vLLLm3WdyZTvOmzafPHtmTJUreNK31KSzfbxRddaIdC++HXXvtv13PiZ/ffa4OHDLL/8b3ZdsopJ9lpp41183rN31crvbQuN0z7d/vXb02166+/zj06ZXWytWvfdMu0Z/Gm84UXnm8jRx5nzy1b5tJ56NAhrnz9xz9ec89J57B401kxu2zZ80fE89Zt24jnCKQzAMQnM8ObSaYhgwfZRxs32qpVq1xXwLPOOsN7J6yk5H0bOGCg9yxcyA4qKrINH37knl9xxWXuAO/5F/5qNfXGyqURpWUUFBS4aecund00VkHyRZeQlKxf7z0L/8227TusV69elhH6h+C6dUteftV4G2FkfiE28eZXqudFotLHVz99Xn3176Fl8ux3v/u1XXbpJfbS315xBwH33bvAzjn3bLdMWxZv+ax9caBtPj98mZ96lZaXV7j9ePG4cW5/LDNvnu7OSFfuqXTL+Y+VK1e799u7eNO5f/9+bhrtMh7SOf79V2Q8T/rG9VZdXWVLltS9VI10Jp0BIB5Jv7RHjSIqTN999z33XF0Bhw8bVlugygcbNrhLf7SsnDf+XDcNX/YT/gxRDxRRhVfXHfsPJN78+XfbrbNvs0cffcx7JbEiL0FQt9B7Fvyk9jV/DBwEN29ey+eXv8mSX/GLJ78a23ZUpqZKXsSbPtFiVQ0J026Y7rqnz5v/Y9fY/51vf8uNEzJ9+ky3TFuW6PJZl/Ypfl566WXvlTA1Pml8D9FYZNp/R8rNy3VTpZnGSfAfJSUl7vX2Lt507t27t7ukORrSOf54Vj1z/ry77PHHHrW8/Dy3fZeVlXnvhpHOpDMAxCPpDSl+o4i6Vot6magyq8LY9/TT/+Wm6nkiw0cMc4PfNVaoavwUtWb7D7SMltyp5eV19ebMBhYNtE5ZWXaMd/YOzdPy+RU+OiW/EqO5+ZUu20586RM9VnVmVWNXaLyQqqpqW3DPz+yTvZ9477Z9idre1cikQXlXrV5t770XPuER1Irlr7pepkuXPOEarNRdP3LfngriSWf1rN25c6f3rPlI52AqKkP1xvUlVtint939o3nW0zsJFxTpHAzpDCBdZWpg12QaM2a0m+pyHvUe6de3r3teXHyam4oqtOr6d+zQoe65LvNRIe3zuxJefPGFbqqWa93lR10B0T5FdnVWfurMxBJvYOEgZ/CQXMov/zIS8qt1NbbtKH/Ii2Cxql6ODyy8z04vLrZf/fq3djBUqZ875z/cHVVUuU+XSr0aUW4KHcToDPL8+T/2Xg1O6aoz0hp8UgdXSk8dGDH4ZN2eY+pFq4c/6Kymfk/bIEjn6NRAoO1dvdmUVn1CB/lTpk723g2GdI6OdAaQzpLeI2X48GPd1O89Mnr0ie75CcePqu1+Lbr0R3f0UQVWPVY0cJVP102qYqxBrSL/Bi2rpQ8m1OtIl3n5VLHUGQ6dwatJcoNfKkhWfvmX5UXmF2IXT36lQ14kIn189dNHjfNvvL7GZt0y2zW8aADQ/3r2OZv6zW/bwYPV7q5jbV2827vOAqs3jk5aqLHJb3yKldJSlwrowGrS5KnuNf8ESipobjqPGBGOP9V51ECnh8bjEU01EGcsSOfg/JNvGqsj1uHWSOfgSGcA6SYzI4kHqDojo3vN6xaL6kHiP9588y2vMD9c8urSHw0QqAqsuvxFnnVVC/iq1f9wf7Pgp+FWa53dcYU3WsScObe7MwS6TWhz6O/UA+mcs8MDNw4cOMA9j/y8latWuUYzva78vP0/vufiZfmKFcnuONXuzZ3b8vmlrv/Kr1tvnXVkfiEm8eaXv+1E5kVOztEpkxfxpo8fqw2WLR5V4v0DAe1z1FtSl6Lm5GTZgQMH3OttVbzl88KF97uD+YqKPaHfXu3SyX/EQusR+bf6XPl461Y3be/iSWfFV2S9Rw+NySOaRtZxoiGdm6ZGQb9eqKk+S43M7g4wMdQlSOemkc4A0l1S79pz4YXnuak/BorPr8xefdVX3VQ0+J/OIhaPG3vEwFSiQbLUIJObm2dTpkxyZ3fU2yUR13viSBUVFW66f99+N43VKaecXKcHkq4V13O97p9F1yBkujxLea787NWrty1a9HhMFUyEaWR8aW5+nXzySY3ml8/l18vkVyLEm1+pvu0kJH1iiNVn/us51yNS+xbtfxYvXuq90zbFWz5r+xY1Nmk7j3z45XMQOdnZdf42Py98t462nn5BxZvOiUI6N02NoH69UFPVE7W96xKSWJDOTSOdAaS7jAvGn1Pz8a62fbYNAAAAAACgLcjsmNQ+KQAAAAAAAO1X5lE0pAAAAAAAAASS2akDDSkAAAAAAABBZGZ16ODNAgAAAAAAoCmZWR0zvVkAAAAAAAA0JbMTY6QAAAAAAAAEwl17AAAAAAAAAsrkyh4AAAAAAIBgMmZePaHmufd2e09b3snjxrvpltIPbOf2LVY09Djr1r23Hdi/19775+vuvRHHn2JHd+7q5ut7Y/XLbup/jm/f3krbXbbdPdD2dOmaZz1697WuXQvsqE6dbNfObbbpoxLv3cMGDBoeiodeltmhg3326ae2Y9smFydILvKr/SEvmtZU+mRlZdugY0e5/U46pl1eQQ/rXdg/tN3nu+fET8vw0/noo7u6OPzi0CEr372zwbK1Kd179rGBg0d4zw4r/fA96kAhiUpnNI10BpDuWqU/iippR3cJN5R07pxr1VUH3XwkLaODt/qPSGp80Wvlu3e4glwVi159+nvvoi3p1qOPOyivrj7gvXKkPv0GWo9ehW5HrAqhlu0/cKjbWSO5yK/2hbxoWrT06d13oB11VJZr4Nd7ffsPcq+ni0FDjnO/f+uWj+qkjxpUkTiFoTjMyjratm/b5NL5wIG9Li6bW2/ZsW2z+xz/se+TSu+d9JbodEbDSGcA6a7DuBFDfrhh95ENGS2lsH+R29kffXQX+6Ryt/UuHGB7QlP/rLf06NXXvvjikG1Yv869F/nw6XP2VJa7lu/K8l1WEaogF3Tr5Sp+O7dv9pZCovQbMMSOHTHaDh363Pbv+8R7Nbiqg/tdJV3yQwcvB/bvq5OfMmjoKPv8s0/tg/fetIMH9rk46dGz0Dp2PMrlL4Ijv9qXePMr1fOipdNHDSqdOmXZtlDMHxWadu7c1bZv3eR6qujsf3O+M5niTZ+DBw/YztBB+Z6K3S59dHKjeyh9Pv/8c9u7p8KlwXEnnGpZOTk2+NjjrWtefuhR4Ob1mvbBovTSuqj3T/+BQ9x+Wo+a0L99e/e4ZdqzeNNZabm7bNsR6XwwVN7qvaCO7tzFlcv6LPVA0WfpofWS9p5fLZ3OxHMY6QwA8cn8vKbGm02ez0IV2szMDtajdz/bG6rQJkJ1dZXrmaIGGc7CJp7SVdR9szmUP9HoOyLjQX9TVXXAsnOO9l5BUORX+xJvfqV6XrR0+qiR8KijOtmoMcXWu/AYK9u51R0EDBt5snXr0dst05bFmz57KnYF2ubV2KQTHroESL1G1StUl+b6+g881p2R/uyz6tpepHqo4SoVxJvOSuPIdNaJJF0OsWvHx94rwXTo0NFN+/Yf7C5zHnPq2TZk2AnugDRSe82vZKUz8Uw6A0A8Mj//IvkNKeIXpPv3N9wKrm7Gap32H+qaHY3OokvHjuFKBhJn4wfv2vp31tj2j0u9VxIrsvFL3UKHjRxT+1pWdo6bIjjyq32JJ7/SIS9aOn3UkPDuutdc9/QN6/9pnbt0tWNClXuNE+KP3dWWJXp716V9onSJVHXwoO3fFz5D/PGmDaH9+D437/MPzJRm6i3qP1LlrHIi0lm9ZtXoccJJZ7j0UtxFHowGoQNfjQun+FTM6pK1vILuVnhM3UvS2mt+JSudiWfSGQDikfnpodZpSNn7SYVrfW6sxVkFq1qo/Ye6saJ1teROLbLxKzuns+uxVP/sGmJDfrUvzc2vdMmLlk4fVf71vsYLOfT5Iftow7u1l0q0B4na3tXIpEF51cMz1s8s37XDnZFWDwk1WKm7fqqNs5KIdFav3L17Kyw7+2gbOmJ0zNurDnzXv7PWDQasS3vCB52Vlp8fWz2pLedXW0hn4jkY0hlAusqs/uILbza5VAFQ63Njhbh6rOgOPf5Dy0aja9vRPkXeaUCVQuW3f8eIhgYjRusiv9oO8qJpQdJHFX/dLU69JDeXvm+Hvvjchgw73g1grsp9ulTq1YgyoGiYu+xJZ6tjpXTVGWkNPvnpp9UuPYeNPInBJyOozqM4VPoqrdQrSoMdx0tn/WO9RCOV8ysR6Uw8R0c6A0hnmdWHWqchJdFUEe7Zq59r1Y6sOCNxWvpgQtfOds0N335TlKc6w1F1sPE7x6Bx5Ff7Ek9+pUNetGT6qDdKZcUuW//OG27/oYq87ojy9tpVdii0T/EvdWnL4t3edRZYvXF0ZjnIiYvGKC3VY0IHVuvW/N291jW3wE1TQSLLVf8SCI3PEwuNi1I09DjvWVh2To6r/8SqreZXW0hnIZ6DI50BpJsOQwcN/GH5vs+8py1PI3HXvwOIzoLpUh4NLiW6a4/GSNFAgHov8uH/nT5Hju6cawU9ernr2TsedZRt21qakK6KqEuVNt0Os7mjqGuMGx2M6HbX/gCPyruczl1qP08xoOu81bNIeak8zgod7Og6cI0Ij+DIr/Yl3vxK9bxIRvroc/1LeTTgrA5KMzIzLS+/m+3btyemu6okW7zpo944Bd16urPB6qVTf5/r3yVG++7PQstoftvHG937R3fu6uZF65Gb1732b5XOSnN9RltOv6DiTWc1VuXkdHZlqhr2+g0YbJ2yskN1n61H3DVFY8MNGX5Cg3dU0d1P8vJVbwrHc8/e/Sw/lH+7d+1Iifxq6XQmnsNIZwCIT+ZnbbRDiiq+kWOk+I9IKoj1ms4e6v71GnRNLdpIPJ3Rleac8RLtQJVXOpgRP+/0uk+DkKkxTdfnq0t9VtbRtqX0A3oYNQP51b7Em1+pnhfJTh91MVfM6yBD+5ZY76qSbPGmj36rqFu+tvPIRyw6ZHas87c6IaJ0b+vpF1S86axeUIopxaCmSh/FoX+pWVClG95zt5z141lTpbMusYhFW82vtpLOxHPTSGcA6S7jwvPOqdlSRld8AAAAAACAaDI/b52b9gAAAAAAALQ7mV/QkAIAAAAAABBIZo1leLMAAAAAAABoCg0pAAAAAAAAAWUaDSkAAAAAAACBZGZk0JACAAAAAAAQRCbNKAAAAAAAAMFkelMAAAAAAABEkXH2uefVlO3e6z1teU8/9Wc3XbTocVuy9EmbO/d2Kx43zj7auNFmzJhlNTU19sAD99ngQYPccpFefmW5LVhwr5t/6i//13RZ0sIHH7Jly15wry1ceL+bTp8+003RdgwfPtyuuearNnzYcCsoyK+Tl5Fmz74lFA9jLTs7xyoqKu0vf3nKxQmSK3B+3RrKr2Lyqy1g22laU7Hao0cP+/4P5tjgokFpmXbFxcV2zdVfcdu9ED8tw0/ngQMHuDisqjpoq1a/1mDZiuYjnZMjSD2BsgVAKsu0Gm8uiVSQDh8xzM0PHDDQtm3b7uZ9b7yxxhXIalyRN998yz1ft26dex7pnLPP9ubQll155eVuZ7tz5w7vlSNNnTrZxp97jqvwqIFMy06ZMsntiJFcV14RML/Gk19tAdtO06LFqt4vyCtwDfx679prr3avp4vZt95subl5tvTJP9VJnxEjRnhLIBEmTrzOevXqbU8/86xL59LSTW67vebqq7wlkAikc3IEqddRtgBIZR0GFg364YGDn3pPW971119n69evt359+9nKlatcS/Wbb62z/Pw8e/bZZW6ZtWvftL//faWNGjXSiooG2pKlS+3xx39vGzZ86N6X679+nb0V+rvhw4+1l/72ih04cMAuu+wS996zzz7npkicG2+cZj/4/lz77LPP7J133vVeDW79+vft97//g+tFNO6002xjaanL40i33jLLKisr7fbb57i8fuONtXbJJRdZ9+7dQ3n8N28pBBF3fr0fPb9umTUzlF977I475toHH2yom18vkV+xiDe//G0nMi8mTLjQeqRIXsSbPn6sNli2hNLnjDNOt/y8PPvNb35nhX372qBBRbZ4yZOup8rll13arO9MpnjTZ9Pmj23JkqVuG1f6lJZutosvutAOHTpkr73236FYush+dv+9NnjIIPsf35ttp5xykp122lg3r9eWL3/VfY7SS+tyw7R/t3/91lS3v9ejU1Ynt19v7+JNZ6XlsmXPH5HOW7dtI50jkM7JEW86B6nXNVS2TLj4Ivv80OfkBYB2r1Xu2lMRqvBnZ///7d0LfBTV/f//TwJCkGsACeGWYIAgkXCHSFtuCnjBfquCtvarYG8/qmJV6M8vQqvtF77af0GttLa/2p8FfVRbwbZ/wSq29YJWQeoFqZcgKCAtJAQCKCTRYn77PjuzbEKymc3mzuvJY5id2clczpndnfOZc86k2OWXz7T8/Pe8ufHTenSnYcaMC705qC+pqalu3L5DezeOV1FRkfeqeqoamr9tmzcV/pu9+wqsR48elsRjuuPStWvD5Zea40l0fiE+ieZXS8+LukofX+X0efHFl0LLdLZf//pXduEF57vgvC7w775rmU2Y2PRrPSb6/bxx48Zgn/ku4er7qqZ/8GCxqzWqprn+dcSN35nn7vwfOnzILecPL7+8yb3f3NXF72B0Ol/1n1daWVlpqKBZsZkD6Uw6N4SGuK5L9LvF19LzAkDzlGyNVEDdvXu3nZOXZ+9t3+7NqZ2t/3jLRo0a6U2hvixdeofNX3CLrVz5oDenbkU3QVD12+XLfhSZl57e040R3JIl9Z9ffgyW/EpcIvlV3WdHhYGWkheJpk9N56ou9ud+e56rer5k6Z2WdWZ/++Y3vuba8jeHPrfq+vtZTft0/jzzzHPenDAFn/wmtvfd9wt3IyNap86d3Fhppr4S/CE/P9/Nb+7qIp1VUFy65If20IMrrXOXzu68279/v/duGOlMOjeE+r6uq4qaA0ltv1vUl2JLzAsAzVOyNUYnKSGqiqfIcqLRZP0ApPdMcz+aqF/1+YPVuXNH75VZRmaGtWnb1vr26e3NQW3Uf36FS6fkV92obX6dKp+dxNKn5nNVd02zsrJcm/7S0jJbtvwnduSjI967TV9dfd4VZFKnvBs3bbJ3333XmxvMCxtedB17rln9iAtYqSp+S/ttrot0Vm3a/G357trljv9ZYmd07+69EwzpHAzpXLO6+t4Iwn23jEvsu2X1ow+32LwA0Pwkm1cVvKGtXvOYi/LXxZe4mgf5UW40T/6Tl0R3GXRu6ByRyp0Ro/Epv/xmJORX46rus6P8IS+Cnatqf3/virtdLcn7f/WAlYQu2Bcv+i+bd/11rhB1qlywq6BzXaiAorvDS5fe6c0NTumqO//q5FOFWKWnCj108nmCrnl0HqqWldKqZ6iQP3vO1d67wZDONSOdm5bo7xblSbzICwBNUbI3btbWrvuTDcvN9aZQX+q7MOGe5jQo/DQnUeFGd5IKCwutvJFqTjVnDZVffnvy6PxC/BLJr1MhL+oifXyV00e1UV579XW76eYFLvCijhP/9ORTNueab1hJSVmzCNQn+nnXHV7VxtEdfAWb/OBTvJSWqimqwtJVV89x84YPH+bGLUFdfq/6fUeof4h4W1mTzsGRztWry3SuTuXvltpq6XkBoPlJbqQuUmLSoygXLLjZMjL6uWk94ljT6vyvKmrfXlpaav0zM705qGuLFi100X/lTW34eeo/rlp5q+no9b0cykf1WeDn9cL/+q6lpLSzDS+80Fgt0JqtxYvrP79UPVf5NX/+TSfnF+KSaH75n53ovGjX7vQWkxeJpo9/rlb53eLRBbpf4FIV8t69etnkSRND6djWPRWuKUv0+3nFintcJ7vFxYdDx17m0skf4qH9iP5brVf++a9/uXFzl2g6q0CpO+g6BzXWuhT8dE8dieM3jnSOjXQOJtF01t8pXWJdJ/DdAqAla7TOZmMZOXKE653bD4wMG5brpocOHeqmq/L6G294r1AfiouL3fjox0fdOF7qEFh5qLwU5a2mNd+/i64OxtQLu9rQqkp9jx5ptmrVQxWaLiAY9Xovtc0v/zNYVX75XH49R37VhUTzq6V/duokfeI4V5/401PWr18/mz37Ktfp4aOPrvHeaZoS/X72f2sVbNLnPHrwv5+DaJeSUuFvu3QOP4mjqadfUImms4JzOqd0DmrcqVNndx6q2UI8SOfYSOdgGuK6ju8WAC1Z0oRJk8sLiz7yJgEAAAAAAFCdZJpMAAAAAAAABNMk+0gBAAAAAABoilrEU3sAAAAAAAAaAoEUAAAAAACAgAikAAAAAAAABEQgBQAAAAAAICACKQAAAAAAAAERSAEAAAAAAAgoacKkyeWFRR95k/Vv5LhJbrxn13Yr3LfHMgecZV27pdmxox/Zu/941b3nyxk2ztqmtLPDxQdsx7at3lyzbmf0tIwzB1vB3g/tn7t3eHPNsgYNtY6dutg7WzdbWVmpNxdNQYeOna17Wi/r2DHVTmvTxooK99ruD/K9d0/o1z87dD70sORWrezTTz4J5fFud56gYZFfzQ95EVus9GnbNsX6D8yx09t3PCXTrnNqd0tL7xP63Hdx05w/9cO/dqls1/vv2oH9+7wpJMo/n08/vaP7vH92/LgdPFBY5W8Yai/IdQLfLQBasmSzJO9lw9EX6ekdOrrX7dt3srLSEvc6mr6gFUTRe7q4jaYLjoMHCuyMHr3cBbDoAqVzajfbF/qCJojS9HTt3tP92JaVHfPmnKxn7wzr3iPdXfDowlLL9skY4H6I0bDIr+aFvIitpvRJ65Vhp53W1gX49V6vPv3d/FNF/6yz3PH/a88HFdJHv8Ooe7oJpHT2h4+PHPLeQV1ID33e27Y93V0PKn2PHfvIff579OzjLYG6EOQ6ge8WAC1Zq4zM/rcfPVbmTda/9D6Z7qLh9NM72JFDBywtvZ8dDo39aLbvjNAPnr5od72f734Ajx372MpKT3xZlxz92H2Jt0lJsUMHiyzjzGz79NNPbOeOd7wlUJd698uygYOH2fHj/7ajHx/x5gZXWnLU/ZBKl1Dh5Vgo/5Tv0foPyLF/h/Jw+7tbrCSU3zpPup+Rbq1bn2bFoQIQgiO/mpdE86ul50V9p48CKm3atLW9oXP+tNC4ffuOtu9fu12gXkH62myzISWaPiUlx6wwVLhX7U+lj25gdAulz7///W/76HCxS4Ozho62tu3a2ZkDz7aOnbuEhlT3WvP0GyxKL+2Lav/0ychyv/caykP/Pv7osFumOUs0nU9v38F9nx7Yv9fdEFJaa9D6hHQOSzSddc4qjSufzyWh3zXO5xMSTecg1wl8twBoyRqljxQFPJKTW1n3tN72UeiCtirtO3R0zX0OFxe5apmdu3Tz3glTrRNVD1SzIH2xpqSc7u4mon4o0CWqJlsbQWoJaRvR54P+prT0mKW0O92bg6DIr+Yl0fxq6XlR3+njgvmntbGc4XmWlt7X9hf+y13gDxoy0rp2T3PLNGWJpo9+Z4N85hVs0g0PVdNXzVL9Rus32NcnY6C78fHpp2VuOX9Q4KolSDSdW7Vq7ca9+pzpmjkPH/0F1yRZhcRopHPiv1/R57Nu2Ok6sqjgn96cMNI58XSuCd8tAFqyRuts1v+SPHr05Ci4Lir0Zepf+Kpapvo+qUxtLD/+6JD7clWVbaLS9Wfn9nds29uv275/7vLm1K3oJgiqfjtoyPDIPDXxQnzIr+Ylkfw6FfKivtNHF/vqW0tVz3ds+4cL5PcNXbgrWF+5766mqK4/76rtKUqXaKUlJXb04/DvrPon0x3oaH7BTGmmvhL8oaX8Nieaziqw6ppF55XONV23qElyet+KTclI58TPZ9VoVpBq6IjxLr2q6juPdK7b740g+G4B0JI0WiDloyPFLrJcVTTZv8j1vyCPfvyRu+CN1abSrxqL+lOfP1itW4fv1ElKu/auxlLlu3SID/nVvNQ2v06VvKjv9FEhS++rTf/xfx+3D3a806x+V+rq867fX3XKq37I4l3nwaICd+dfNS0UsFJV/JbWF0Ii6awC67a333A3gdS0J1wQPGRdupwI9gVBOgej2s8ffVTsaiwPGDws7u9F0rlu8d0CoKVJNiv3XjYsXUgoslzVl2nHTqlurOY8frMd6VCpVoqqXqvmiqr3qeNZvlSbr+gnFujiUueG36t7VZ0Ro3GRX00HeRFbkPRRAWvw2aNcLckPd71nxz/7t2UNOts9YUUX7qfKb4sKOv0yB7lmT7pbHS+lq+78q5PPTz4pc+k5aMgIOvmMQXfi421aQTrXTNeW+rzrPFZa6WacOpWOB+lcd/huAdASNVqNlFj8ZjxqsqNBVV+lU+dwgEV04at2xops68dSdx56Vaoei7pV34UJtYuNbsKlPFYQrbSk+h7hUT3yq3lJJL9Ohbyoz/RRbZRDxUW27e3XXOBFF+l6sspbb2y048ePR6qjN2WJft51h1e1cXQHX8Gm2lJaquaFCktbX3/JzfNvjrQEiaSz+kXJHHCWNxWW0q6du9MeL9I5OL9Jj/pBihfpnDi+WwC0VE0ukKKote7OqCfw1zY9FxnU47dqn/jUprhVaLm9H4Z7DN/3r13ufaLT9UMXf4r+6zGitaG/U+2iLqlnuGk9vUDT0etTUEx3jTRftY0ysga7c+FQ8X5vCQRFfjUvieZXS8+LhkgfXaD7BS4VbBVo0e+RfmeaehOfRNNHtXHUya5uSHx2/DOXTv4QD+1H9N9qvaK70C1BoumsZjwK0iltdB5qrOsW9ZUSD9I5NhXcdS2oNNZYTUFETcrjQTrHpr9TusS6TuC7BUBL1uQCKandwl/IxUUFbuzzL3j9H0ddjOjJCv6Fr+4i6iKlV5/+7m4j6pbu6Ept7pyJHo0XXbvo9PYd3bTm+9TBmJppqQ2tqtS3bRt+ElN01XwEQ341L4nmV0vPi4ZOH1Uf1znfJ2OA6+y88tM+mppE00fHKgo26XMePcSjVXLrCn972mnhJ3E09fQLKtF03rXjXXdTyD8PNVb6qFZtPEjn2BQE1WdXaayx0kefd79JX1Ckc2xBrhP4bgHQkiVNmDSlvLAo/ufHAwAAAAAAnGqaZB8pAAAAAAAATVFyUpL3CgAAAAAAADElN9LTjwEAAAAAAJqd5HIiKQAAAAAAAIHQRwoAAAAAAEBANO0BAAAAAAAIiM5mAQAAAAAAAko2I5ICAAAAAAAQRNLESVPKC4qOeJP1r3v37jZ37jdt+LBcS0lpZ6WlJZaf/57dfc+9VlRU5JZZ+/gf7PkNL9iyZXe5aVmx4h43njfvRjfWMklJSbZq1UO2es1jtnjxQssbN84+2LkzsgyalgULbratW7fa+vV/tunTp9q866+zFT/9mZv2aZm8cWPcuVFcfMgef3yty180vED5NT+UX3nkV1PAZye2WOeqfpe+f9siOzOz/ymZdjr+m268wbKzB0bSZ8ubb1b4DUbisrOzbdasSy17ULalpnax557fcFIa+9+1lVX+7kX1gqRzXl6ezZp5iVtW+M6MH+kM4FTX4J3NzplztQt4PPPs8+7CYOOmzaEv2IE2Y8aF3hLB6Qs5e/Ag9zqjX4bt3bvPvUbTox/TSRMnWFZWljfnZDo3tIzOCZ0bhYUFNnv2Ve5v0bAC59ck8qsp4LMTW03nqt5P7ZzqAvN674orZrr5pwo/iLLuiSdd+iiIovPp2mvnekugLlx88UWu0KlzrCZ/evIplxf+8Oqrr3vvoCZB0nnB/O9Yp06dbc1jv6/wnTB48GBvCdSEdAZwqmvwQEpGRj9Xa+S++37h7q4oej332/Ns5coHvSWC2717twug6G5aampny9+2zXsHdU0X1OvW/tFmzbzMmxOfwV7Aa8eOHW5clXOnTHHBMJ0TOjfuuPPHrsbSxQqy0QItLg2RX1MmT3b5tXz53SfnF+KSaH75n53ovCgpOdZi8iLR9PHP1Sq/WzylpaX23HPP2473P/DmhGtq1HabDSnR9OnUuZPt3Vfgfof93+Xy8nLr3auX++5VLQmtXzU/NV6+7EeR1xr7lF6qGfXQgyvde/6gQFVLkGg6K32vunqOPf3nv3hzqqfvXuWFP/g1dk+FvGiIdF62/Ce28NbFkXP+l/c/4OZPmTLJjUnnmpHOAE51ybpYakhHDh+x/pmZ7svT518gxKv40CFLSUmxyy+f6ZoHof6kpqa6cfsO7d04Xn369HZj/ZBWR1VDo4NhOi90cd+jR4/QtTyRlHh07ZpYfvXuHTy//O+Q6PxCfBLNr5aeF3WVPr7K6fPiiy+Flulsv/71r+zCC853NSb1G3X3XctswsQvuGWaskS/nwsKCtzv8tIlP3SFFTWlVdPZN97YYtFP9kvtEq6+r2r6Bw8Wu5siqmGqZeXG78xzNVkOHT7klvOHl1/e5N5v7hJN5yDXOp06dnLj//zqV11Bcc3qR1y+qCAZrbq88DXnvGiIdN64cWOg5Ujn6pHOAE51DV4jRX2h6M6g2gArspxoNFm1Us7Jy7P3tm/35qA+LF16h81fcIu7q1AbaWlpLt+rE90EQXdHdFfCn5ee3tONEdySJYnmV48a88t/4hf5lbhE8qu6z44Kty0lLxJNn5rOVV3sq2akqp4vWXqnZZ3Z3775ja+5tvzNoc+tRL+flb4qlAwblusKK+k901xV/NWV+jFQ8En9Jolqle7atdu99qlmiyjNVKvFH/Lz89385i7RdA5ChVqll849nY9qjqZ8Ud9y0YLmxQ033NTs8qIh0rkyNVORZ555zo19pHPdOhXTGUDL1eCBFEWmv/mtue4iTVWpZ152qd3/y1/YGZXutgSlO2aKUBOVrn+J/GDpbmdhYaE3dbLOnTt6r8wyMjOsTdu21terxYLaqf/8CpdOya+6Udv8OlU+O4mlT83nqn6b1CeQ2vSXlpa5KulHPmq4jtgTlcjnXTc0huXmukLVjIu/ZPf/6gHXXCw6SBfECxtedE2mVItCASs1HfA7mWwpEknnIFSoVT4oiKUagX5hUR30+zV/gvDzYvWjDzfLvKjvdI6m81wddW/ctMneffddb24wpHNwp3I6A2iZGu3xx7pYUEBFd1x0V/DGG2+o1a7oYkN3vxryxwDxib4YV3V5DX4nphqrynJ0ExJdOCpP/buhsWpGoO4pv/zr9Vj55TcjIb8aV3WfHeUPeRFOn5rOVZ3T966429VuVBChJHTBvnjRf7makwoKtOQLdh27bmiog1n/d1RptmvXLrsuVFiJp/CudFXNHnVaq6a3Sk8VemrbBwPCdLdeT1OKB3kRjH7vdJ4rjVUzK16kczCkM4CWqMFrpFSmCzZdzKrant8PhqLO6pQ2WpfOXbxXaCy1LUz4HZeqerIKJhrUD4FoPGrUCPfaPYVpUHhZ0QW+qpirZkR5dEN9BJJYfiUFzi+/oBWdX4hfIoX1UyEv6iJ9fJXTR7VRXnv1dbvp5gXuN2nc2LHuqSlzrvmGlZSURaqjN2W1TZ8BAwZ4rypKSWlr7dq19aaCU1rqRokKS+qIUoYPH+bGLUEi52EQlTvZFJ2rui6KV3POi/pOZ1GtBtVAy9+W7wKstUU6x0Y6A2ipWmVm9r/9aOhCsaGoE7ucnCHWsWOH0AVcll1yyZds6Nk5tmXLm/bSSy+7ZVTF+KzBg91yI0eOsK985QpXa+Wvf30m3PldyJVf+bJrQ+n/jYwff4516dLZngxdAKNuLVq00L7+tTnWpm2bSB4EpeUffuS3FYYDBw+4wopqJPl31JXHI0cMt169e7nzY87sq6xnz562es0a27H9fbcMgtGFeL3nV6/0cH71qiK/dpBf8UgkvyTy2amQF+ktJi8STh//XK3qu8VLH6332LFj7vWll/yHffrJp9YuJSV0oZ5r297bbps3/9291xQl8v28Z88emzx5kg0ccKad3r696x9Jv8ujR4+yt956x/767LM2ICvLff537trlgk96re8F/eZmZmbYI4/8zq1L+zFu3Fg3X4N+u9WJ5Guvv96k0y+oRNJZ1ITqvPPOtcGhwmvPnmnuBoGucwYNGhhZnwLVw4cNi5yrLi9GjbIX//ayu97RdVOsvNBrac550RDprGvRsWNG2/79B6ygoDCSThpI52BIZwCnugavkfJJWZkLlPh3uvVandypyrXvnp+scIGV7OyBruM71UbRMopEo3EUFxe78dGPj7pxfVAHY8pntaHVudGjR5qtWvVQpOCO4NTrvdR7fj1HftWFRPOrpX926iR94jhXn/jTU9avXz+bPfsqF7B/9NE13jtNU6Lfz8uW3+2Oc8ZFF7j08fsxUOfwobJRYAo86TfbH/zf7qaefkElms6jRo106aLafqK+qDSt+X5tMj2aW9c//rmqceVrpCCac140RDprnigIHZ1OGuJpzkY6k84ATl1JEydOKS840Hw61AMAAAAAAGgsyfQ9AQAAAAAAEEyy9zADAAAAAAAA1KDRn9oDAAAAAADQXBBIAQAAAAAACIhACgAAAAAAQEDJcTx9DAAAAAAA4JRGjRQAAAAAAICACKQAAAAAAAAERCAFAAAAAAAgIAIpAAAAAAAAARFIAQAAAAAACIhACgAAAAAAQEBJEyZOLi888JE3WbXp06favOuv86YAAAAAAAAaxsVfvMTKy8u9qcaXNHHilPKCA0e8SQAAAAAAAFSHpj0AAAAAAAABEUgBAAAAAAAIKLnptDICAAAAAABo2pKTvBcAAAAAAACIjaY9AAAAAAAAARFIAQAAAAAACIhACgAAAAAAQEB0NgsAAAAAABBQshmhFAAAAAAAgCCokQIAAAAAABAQfaQAAAAAAAAElJxkSd5LAAAAAAAAxJJcTh8pAAAAAAAAgdC0BwAAAAAAICACKQAAAAAAAAERSAEAAAAAAAgouZwuUgAAAAAAAAKhRgoAAAAAAEBAycZTewAAAAAAAAKhRgoAAAAAAEBAyWZJ3ksAAAAAAADEkpxEHAUAAAAAACAQmvYAAAAAAAAElJxE0x4AAAAAAIBAqJECAAAAAAAQEIEUAAAAAACAgJJp2QMAAAAAABAMNVIAAAAAAAACSrZy7xUAAAAAAABiSi4nkgIAAAAAABAITXsAAAAAAAACSi6nQkqDy87OtjWrH7EVK+7x5gAAAAAAgOYg6fMTJpcXHfzIm6x/3bt3t7lzv2nDh+VaSko7Ky0tsfz89+zue+61oqIibymzBQtutkkTJ9iMi7/kzak/iW5rwfzQ30+a4E2dbMVPf2br1//ZmwoHUpYv+5Ht3bvPvvmtud7c5isvL89mzbzEHZcUFx+yxx9fa6vXPOamfUrnvHFjXL5XtUw869m6datL0+nTp9q86687KY2DqGl/tB+zZl1q2YOyLTW1iz33/AZbtuwu793g4lmPv2xGvwxLT+9pc675RoXPRU2CpGFdHZfo3M/LqzoN/bypzqpVD52Ut9Wpbl1V5XuiaQgAAAAAsTR40545c64OFV7H2TPPPu8KQRs3bQ4VfAbajBkXeks0P1v/sdUVRjVs2fKmm6exP2/nzt1uni8/P9/mL7jFFt662JvTvC2Y/x3r1KmzrXns9y5PCwsLbPbsqyKFeVG+K1il/I5eRgV/X3XrGTx4sLdEOFCg9WRlZXlzaifI/lx88UUu2KD3EnHxjGDr0T4pwKbPx5Ejh925061bN+/dYIKkYV0dl0vDSbHTUD7YuTPyWdCggIuG1QGDKNH+9ORTblv+8Oqrr3vvhNVFGgIAAABALA1eI8VvzjJv3o1uLKql4t8xjlW7Q4Ui/8559B1qFcp2795doVZL9PsKXGz9x1s246IL3J3zjZs22ZIld0RqolQlelvxiFVDovKxqYAZnQ7+32r/VBDUfhcfOuRe+/vsq6k2RTyuvXauXXjB+XHVEIimgvP27dsjaa8AyrIf32lPPrXe7rvvF27eQw+utNLS0kgNHOX5z++717Zt226Lvvd9U5/HVa1HhWIVnv31qKA887JLI+kbK71j8ffnW//r21ZeXl5xfxaH9ifEPy/9bdT2nAiyHv891VJatvxul/e1ESQv4jmuWOfGg6t+bWVlZRXS8Bc/X+FqmCkNq1q/lvn1A/fbpldeqXA+S6xt+euKlc91lYYAAAAAEEuD10g5cviI9c/MdIUen1/ok7XrnnCFJb9mh177w9q1T7h5oloeKqBpyN+W72q13HbbiRoeulOtv1Ghqk3btjZq1Ej73e/WuOUVmND2tb4g26or/rFpiCW1S7i5hQrBBw8Wu4CL9tnnB4D8mgAKIqkmQHSaxqNr11Q3bt+hvRvHa+PGjRXysCpqQpK/bZs3Fc7zvfsKrEePHpYU+idB1tO7d283jidoUhV/fxQAkOj98dW0L0EFWc/U885141sXfS+hAECQNIznuGKdGzWl4eHDH7lzN3p7l18+05KSkuwvf3nWm3NCrG116tjJjf/zq1+1dWv/6PoYWrrkhy4w4/PTUDW9CKIAAAAAqC8NHkhRrREFN3TnWLUCVMMgmgpAKiSrJobotT9EF470Wne51VfG5s1/d0EFBWj8gpUKb/qb0rJSN/83v/mtu8u9cuWDrnCXnp4eeFt1xd+ehlhUGNVxyc9//n9sV6WmQcNyc13wR8evdenuvwIuY8aM9paIj2oGqKmR0qYuqCmLCst//Wu4sBzd1GPWzMvCTS9C87SM+rCojpqgyDPPPOfGkpbWw50/iajt/tQnBc10figgpiCBggWqvRW9r7Xh50V0GsajunMjnF7h19FpKH4aKqijGlfRfzt82DBXg0rvVRbrPFRwRemjmlcKHurzPmxYrutvyeenob5T6jINAQAAACBagwdSFOBQ8w714aCmFWqmcf8vf2FnRN1ZDsIvLCkgo8FvojNq1Ag3rmzTpk1urO1XLtw1N6oJIKqB4g9qYpGWluYKzbVRV4EjFVrV+aiaIvnr7Ny5oxtLRmaGqyHUt0+4Zkl13HrGhdfz7rvvenPNBcUKCwu9qdqpzf40BO2H3P+rB9znI71nmn31q19282ojOi+i0zBeVZ0b4TQMn2tB01CBDgVZXq4iiOKr7jzU51VBFgVDFTxUEFHLqtPq6HO+rtMQAAAAACpr8ECKTwUjBVR0d1mFqxtvvMEvl9VIBbLLLr0kVJB6zz2RQ0/bqam5TEuju/F+EElDY9WkiKaC+3XXznU1apYuvdObW7EZjgrACmSpQKwmIVXVLoleT3Q/Gprvl5n9AJLf6azG0c08Yol3fxpKQUFBpJaRPh9vbHnTBY5qo7q8qCvaR79JT3QaSnVpOHPmpQnVjqlMx6Y+gqLVZRoCAAAAQFUaLZDiU4FHBa9OnTtF+sqIpqBJZZmZ/VyBbMMLL0T6Xxg6dKgbJ6KqbTVFahqhpj0KIEUPKsz6hdt4JXrs6ihUT4xRfzVV7Yf2OXvQIG8q3Omoaguodkm5epr1VF5PtMGD9fdJFYJI6pxUNK6uNlJV/P3xazNE709T0a5SkCComvIiXtWdG/GmoZbVZz1W7afqtqVmOosXL/SmwrQtPT49ltqmIQAAAABUp1W/jP63Hyv5xJusf+qzICdniHXs2MEGDMiySy75kg09O8cFBl566WVvKXPvjxs71saOGWNZWWfa+PHn2PDhw1x/KK1bn2bTpp5nKSkpdtpprd06MjL6uU5aVWgsKNjvCnWjR4+03KG5bl0HDhywM87oYXv27PG2cEKsbcVLx6R1vfLKZtux431vbphqCeTknBVZprSk1D75pMxNa1l//s5du1xhVK8feeR3Nv6ccywzM8MefuS3bj2tW7Wy6dOnuXTs1rWr9e3bx0aOGGHHj3/mjjNeKqB+/WtzrE3bNvbGG1u8ucEpT8eOGW379x8IpX2hSz9/8PNUNWZGjhhuvXr3cuk9Z/ZV1rNnuq1es8Z2bA+nU03r0b4pDaKHAwcPuHRSjaTomiaipyTdeust9umnn9rbb7/jzQ2L7E+vKvbHyzc1HzvvvHNtcKhw3zNUaFfAR2k+aNDAk9JJHQDfurDqbQVZT86QIXb22UOsX0aG2x+d03njxrpmORs2vOiWCSJIXsRzXLHOjfRe6VWkYc8KaehT7SE1v1v/9NMnrccXa1sKkql/Ff/8UfqMHjXKXvzby5Hjqqs0BAAAAIBYGrxGyidlZa6zVL9GgV5HPx7Vp0Kx+jgQFcA0ZJ3Z303rjvZjv/+D6Uk9WofudKszWdHTbdRJqQa95zd50Wv1lRDdn4Kvum1VsWhCrrzyishxi/YtejooNaHQI2L1dBR1Tqq/v+KKmZaaGn7qSbzUUa0c/fioG8fLbzqh4/HTzx98evRu+IlJY9z+9uiR5o4hOvgRaz1V5VsiguyPnvSkbasGjGj/NK358ezPyJEjql2P756fhB8b7O+Pxtq/yo8IrkmQNIznuGKdGy4Nn4udhr4vfP7zbvzEE0+6cVVibeuOO3/sgq2V0yf6e6Ou0hAAAAAAYkn6/ITJ5UUHP/ImAQAAAAAAUJ1G7yMFAAAAAACguSCQAgAAAAAAEBCBFAAAAAAAgIAIpAAAAAAAAASUXNdPpgEAAAAAAGipqJECAAAAAAAQEIEUAAAAAACAgFpUIGXd2j/aggU3e1N1Lzs729asfsRWrLjHmwMAAAAAAE4lSV+YOLl8/4GPvMn6pyBE/8xMb6qii794iZWXl3tT8VMg5bnnN9iyZXd5c2JT0GXSxAne1MlW/PRntn79n72pcCBl+bIf2d69++yb35rrzUVeXp7NmnmJSx8pLj5kjz++1lavecxN+5TeeePGWEpKuyqXiWc9W7dudXkzffpUm3f9dSflVRA17Y/2Y9asSy17ULalpnaJ69yKFs96/GUz+mVYenpPm3PNN6yoqMh7t2ZB0rCujksWzA+lYV71adi9e3e76cYbQtscGFlmy5tvxr09/7gyMvq59ZSWltjGTZsj6/HPg+qsWvXQSecRAAAAANRGo9RIUWFKhbfKQyJBlNpQYdzf9pYtb7p5Gvvzdu7c7eb58vPzbf6CW2zhrYu9OZAF879jnTp1tjWP/d4FNAoLC2z27KsihXmZM+dqF7RS4Td6GRWQfdWtZ/Dgwd4S4QK11pOVleXNqZ0g+3PxxRe5YIPeS8TFM4KtR/ukQF3euHF25Mhhdw5269bNezeYIGlYV8fl0nBS7DT0gyjrnnjSLaMgitL92mvjC0R+9atfth490iLr2bVrt1vPrJmXeUuEfbBzZ+Tzq0HfNRpWE0QBAAAAUEdaZWT2v/1YySfeZP278MLzrbSs1L73vdvspZderjD47r337tByF9ioUSPsf393gV155ZftzKz+tmHDi94S4bvqt9/+PbsuVCC79NL/sNPbt7chQ86ynbt2VVhXLDt2vB/Z9mmntbZxY8eGClxr7KGHfuPmHThwwC2nmgu3LrzF7cf0aVNt2PBce/LJp9x7orvhP7nnLreP2l/t99ixY9zryvutO/g333yDXX31VXbBBedb61at7O233/HebRwq1N72/cX26aef1mpfdn/4T1u9eo1LM6Xprl0f2rSp59nxz47b5s1/d8vMv/kmO3TokC1cuMgt89prb4TS7Tzr3q2bPfPss26Zqtaj9P738X9H1nPeeVNcPj+1fr1bZsCALJdvr7yy2U0H5e/Prbcutu3bd1Tcn2fC+7Nt23v2m988bElJSW4b8Zxb0ba9V/N6dA5dM2e2q+10+w/+2x5+5LcVzsGgqs2L4yfyIp7jinVu3HzTjaE0PFwhDc8/f6oL/vhpeMkl/2Eff3zU7rzz/3PLaDtf+coVVnKsJLKML9a2tO/r1z9d4bh0bvxr7173nn8eKBCqWipaTsf5lS9fblve3FLhMwgAAAAAiUhu4EoggXXp3MU1b9BdZd1l1l163QH3XXfdXEvvmebuvN//qwds6Nk53jt1b+3aJ9xdcA2xpHYJN5NQkOfgweLIfvsURIm+g7979253B1+F6MbUtWuqG7fv0N6N47Vx48Yam5+oCUn+tm3elLnl9+4rsB49elhS6J8EWU/v3r3dON5mPJX5++PXgoreH188TWpiCbKeqeed68a3Lvqeq/lUW0HSMJ7jinVuBEnDgoIC15RvyX//wAUk1bRPAZw33tjiLXFCrG1p3dH7ffVVX3XNe1avDtc0OXz4I/d5i17m8stnuvFf/lIxYAMAAAAAiWiUpj0KkqhQ5Q/RARJfu3ZtXRMa3V3+wQ+WuHnqb0EUqFDh7Jlnn7eVKx90hepf3v+Ae68+qGCrbdRUeFchUs2F5L77fuGaH0TLzR0avmO+/C63rkWLv++aHYwZM9pbonEsWXKHa7KktKwLasqiwvJf/xouwEY39VBTDNd8JTRPy6gfkOqoCYo888xzbixpaT1crY1E1HZ/6pPOaZ1nCqypQ2P196OgQ/S+1oafF9FpGI/qzo1weoVfR6ehRKeh/l7BxWHDcl1THD/4WVVTm5rOQ6XR0iU/tIceXGmdOneyud+eZ/v373fvKYA0b96NFf52xPDh7vOl9wAAAACgrjRKIEV3slWo8odRo0a6wl40BSX8u8vRd5klM7OfW37Hjh3enHCwo6nTcYuaJKgWiobS0lJLS0tz8xtTXaWfCtPqfHTjpk2RdXbu3NGNJSMzw9q0bWt9+4RrllTHrWdceD3vvvuuN9dcAK2wsNCbqp3a7E9D0H6Ialgp2KCgg/oGqa3ovIhOw3hVdW6E0zD8mY2VhgqSDsvNdQGSGRd/yR3buVOmuH2rSk3nYfGhQ5a/Ld+lzR3/s8TO8IKrlSnoooDOywRRAAAAANSxRgmkqAq+ClX+oDvJDd3RbGPRnXk9XcQfGqsGRH1Q4Vh91igItnTpnd7cis1wVMNI+a0aCcrzqmqXRK9HtRR8mu/H2/xAlN/prMZ+jaWaxLs/DUXNYLQ/2j/VrHhjy5vVPuGqJtXlRV3RPvqf2eg0FD8NlR8zL7vUdTDrB0j0d7t27XL7Fi+tQ9vSOaHaKPrszK6iNpvoqUTi14oCAAAAgLrSKIGURKk/BLPyCk9u0R3opk7NDNS0Z8YXTwSR/EBSY0s0/dRRqJ4Yo9oCVQXGdOzZgwZ5U+FCtmoVqHZJeeifr/J6og0erL9PqhCMuvCC8917GquT36D8/fFrQkXvT1PRLqWd9yo+NeVFvKo7N2pKwwEDBrhxZSkpbV3TvaoEPQ/9Wmrql8irGFOBnkqkgE5NNVwAAAAAIF6t+mU0/FN71EdKVtaZNn78ORUG/8khepqNCmfRT8bRE3P8p4vs2bPHJk2aZEOGDHZP61G/GZfPuswV5Gr7ZJVYT3/R3f2cnLMiy5SWlNonn5S56egnx2jbKkTqtZ66omPKzMxwr6V169Y2ffo0yxkyxLp17Wp9+/axkSNG2PHjn8X9dJa6tHjxQvv61+ZYm7ZtquwEtCbqy2PsmNG2f/8BKygorDJPVXtg5Ijh1qt3L+vYsYPNmX2V9eyZ7p6StGN7OL1rWo/2TWkZPRw4eMCltzrvja5pIurc99Zbb6nyKTCR/elVxf54+a9mKeedd64NDhXue/ZMcwGfnJwhNmjQwJPSyX+yU1XbCrIenRNnnz3E+mVkuP255JIvWd64sa5ZTjxPnAmSF/EcV6xzI71XehVp2DOShvqcTp48yQYOODPyOdVxjR49yt56652TntoTa1sKDmWG0sb/zGg5fd71JJ/K6a2aShMnTrD1Tz990noAAAAAIFFNoo8Uf6jcT0osD/x6lWu2oKYD3/zG12zrP95yd8jrg/qp8GtAiArh/nQ8+6ymD6tWPeSeaqJORfX3V1wxM5Qe4aeVNBY9YUiOfnzUjePlNz9RulTOU58631Wno+r3RMfdo0eaS4vo4Ees9cSTzkEE2R/13aNtqwaMaP80XVWfPrGMHDmi2vX47vnJCsvPfy+yPxpr/6KbNgURJA3jOa5Y54ZLw+dip+Gy5Xe7TpdnXHRB5LgUHLr7nnu9JU6Ita3evXpFPjMad+rU2W3Lb04UbcIXvuDG69b9yY0BAAAAoC4lfX7C5PKig2oqAwAAAAAAgFiaZR8pAAAAAAAAjYFACgAAAAAAQEDJSVU98gIAAAAAAAAnoUYKAAAAAABAQARSAAAAAAAAAkqmZQ8AAAAAAEAw9JECAAAAAAAQUJNu2pOdnW1rVj9iK1bc480BAAAAAABoPEkTJp5bXnjgsDdZvxYsuNkmTZzgTZ1sxU9/ZuvX/9mbCgdSli/7ke3du8+++a253lw0RcrbvHFjLCWlnRUXH7LHH19rq9c85r0bFmSZIBbMD60nr4ZtBVgmiIY+rq3/2Oo+A9OnT7V5119X4TOhz8OsWZda9qBsS03tYs89v8GWLbvLvQcAAAAAaBitMjLPvP1oSZk3Wb86duxgJSWltnPXLjt8+LD17JlmW7a8ae/m57t5r7zydztw4IC3tLnXr772uq1d94QdO3bMm4umZs6cq+3CC863F//2ciiv1rl8PffcKfb+Bzttz549gZcJwq3nwgDbqmGZIBryuPLy8uzqq68MnfMHbfPmv9uAAVk2buzY0Gdis+3Y8b5b5pprZlvOkBwrLCyw7t27u8/MSy+97N4DAAAAADSM5HIr917WP91Z1x10DRteeMHN09ifl5+f7+bpzvy6tX90g2qk3HbbYjffp7v1em/x4oWRZfzXGkdTbQE1D9J7Dz240mbNvMx7B75rr53r0qe2aXPulCmu1tDy5Xe7PL7jzh9bSckxu3jGhd4SJ5ZRPp+0TBzd9EyZPPmk9ZSWllTYlr9M9P5UXsYX69iD7HNVy0S2Vem4Ym1r8OBBof+TbMeOHeEZVVi58kG76uo59vSf/+LNAQAAAAA0tOQGjKMEphooatKgIZbULuHmDWrycPBgsX2wc6fljRvnvRsOoqgp0cZNm926du/ebbNnX+UCMTiha9dUN27fob0bx0vNTPK3bbPy8vDJVFRUZHv3FViPHj3ctPjL+KKXiafD41jr8QXZH19qavXHHmSf4zmuWOncu3dvN3766eqDJFo3AAAAAKBxNcnOZlUzRXf3NcSiAuvWrVvd6/vu+4Xt2rXbvfYNy811TYeWLQ/XFli0+Psu4DJmzGhvCciSJXfY/AW3uBoP8VKTFJ9qWqh2kOYlJSVZenpPNz/IMkGE/yb8Ono9Er2tmpaJtnRp1cfu/43Ee1xS1bZipXNaWg9XswUAAAAA0LQ16af2JEq1BWT6tKmuFoqGsrKyUKE1zc3HCX6zqnh17tzRe2WWkZlhbdq2tb59wrUrfEGWCSK8nnCUJPa2Yi9TWVXHXl/HVV0698/MtMLCQmvIpnYAAAAAgPg1aB8pjWHYsFz39BN/iKcGBGoWXWtI/YTMm3eje2KNmtX4NSyCLBOE1uM314lej0Rvq6ZlgkjkuCSebYVruoRf+0G/rKwsN62xOpYFAAAAADQNyfH0T9Hc6FG0atoz44tfshkXnxhU4EVF6memtpTO2YMGuWYvooJ/es80V8PC5y/ji14mnmBerPX4guxPtOqOPcg+x3tcVW3L72g2OuinJwGJxqNGjXCvAQAAAACNr1VmAz7+OFpVj3f16Q59Ts5ZkWVKS0rtk0/K3LSW9efr8a8qsOr1w4/81saPP8cyMzPca2ndqpVNnz7NcoYMsW5du1rfvn1s5IgRdvz4ZxUes3yq05OOvv61OdambRt7440t3tzgVMtn5Ijh1qtXL/eI6zmzr7KePdNt9Zo1kbyNLNO7imW2V8x/dRJ868Jb7NNPP7W3337HmxuW3iu9ivX0rLgtf5kK+1NxGd+iRdUfe5B9rnoZb1uVjqu6dNZrnbPRw4GDB9x5rU6S/ZovetTyeeeda4Ozs0PbSHOBmpycITZo0MBa5RsAAAAAIH7JTbFCypVXXhG5My8qrEZPB6VmFqtWPeSeoKKn9ejvr7hiZuRJLQhTB7xy9OOjbhwvdfSrpyfljRvj0rhHjzSX7tFNX4IsE4Rbz3MBtlXDMr7i4uqPva6PK9F0HjVqpHsKlWquiPpV0bTmAwAAAAAaRtKESeeWFxYd9iYBAAAAAABQnRb91B4AAAAAAIC6RCAFAAAAAAAgoGQ9LQQAAAAAAAA1o0YKAAAAAABAQARSAAAAAAAAAiKQAgAAAAAAEBB9pAAAAAAAAAR0StRIyc7OttWPPmwrVtxjSUkEjlqy6dOn2rq1f4wMCxbc7L0DAAAAAEDiGjyQEl3I1bB82Y9c4be+paS0s5S2Kd4UWqpXX33dVvz0Z24AAAAAAKCuJU2YNLW8sKjYm6x/Cp58sHOn7dq121JS2trwYbkuyLFq1UO2es1j3lJ1T7VSDhw4YEVFRd4ctHRrH/+DPb/hBVu27C5vDgAAAAAAiWmUQMpzz2+IFG67d+9ud9+1zL2+evY1Vl5e7l6rSUbeuDEuyFJcfMgef3xtJNCSl5dnixfdYmse+4OtXPmgmydLl/zQhg3LtTnXfMMFTLSOSRMneO+aC+DccMNNkW34Zs28zKZNm2rp6T3ddH5+fmhbf7CNGze6aYm1P83dtdfOtQsvOL/WwSwFqa6//tvWPzPTSktLbN0TT9qMiy6wjZs2VwhiBEnDmpYJui2pKZBSV3ka6PyZH9pWXtXbUo2seddfFzqGTaH9Gef+vvjQIfda85YsucMtBwAAAABofI3eR4oCHi+HCpypqV1sXKjgKCp0KgCiwrGaaOzevdtmz74q0gRIBdSDBw/Z0LNzLLrLk+zsga4Q6tc6Wbv2iRqbeagQrHWnpKS4AI8KrhkZ/ezrX5sT6U/FD8hUtz/NXdeuqW7cvkN7N46XAhvpPdNszWO/t/t/9YB9bvx4FzCINmfO1S4N9+4rcOksldMwyDLXXTe3xm0FUVd5GuT8ccc1KfZxSWqXLu59BYsOHix2gT8FUwAAAAAATUeT6Gx2x44dbty5c0c3zs0dalu2vOlqEqxf/2dbtPj77i7+mDGj3fuSv22bK3B2736Gm1aBVgXqrf94y02Lgir6ew2Va6H4VJNA677p5gVue7r7v2z5T+z/PrAy8jfDcnNr3J/mTMc8f8EtFWr3BKU8UO2QZ5593v290mfZ8rtPSm8FPJRm8+bdGE7npXe4ZSZ84QuRB0dVtYz4y1S3rdqI5OnyE3mq4EW8eRrk/Bl/zjnVH1cUBVq2bt3qXt933y9c8zcAAAAAQNOSbFZ1gKExqXaK6I69P5SWllpaWpqbL3/967Oh/8vtoosucNPDhw9zTT3iDQaoOUb+thO1WEQ1XqKbZcTan5byFCAFnWojM7OfG/vBMKlqXUpn1frwaZm9e/dZp86dLMmLpNS0jLal9K5pW0FE8nTaiTwtKyurcI4FEeT8iXVcAAAAAIDmpUnUSElPT/denaC+TtRvhD+oMBotunmP9OvXL1RAfc+9jle7AE1DatofND91ladBzh8AAAAAQMvQ6IEUdTZ77pQprjbJ00//xc1TMwg1u5hx8ZcqDGoaEc1v3qPaBKph8MYbW7x3glPNAPWtov2oTqz9qa7JUHOjdKyNw4c/cuOsrCw3lqrWpXRWsMunZRS4OHL4iJV7taJqWia8rfIatxVN/Y5UJZKnXzw5T+MR5PyJdVwAAAAAgOalVUb/rNuPHiv1JuvflVd+2RWKc3KG2JQpk+wbX7/GOnbsaH/8/9dGAiGtW7e26dOnuWW6de1qffv2sZEjRtjx45+5Rxj7Cgv327Sp59mgQYMsKancbv/Bf3vvhOnpPjk5Z9mAAVk2btxYKy0ptbJPytz0jh3vu2VS2ra10aNH2fnnT7VB2YNs7NixNn78OaF1DjyxP61aBdqf5mrx4oWuc9Q2bdvEHYzas2ePTZ48yYaclW2nt29vaWk97PJZl7nAws5du+yll152y3Xr1tVGjRxh54xXngwJLTPT2rVrZ6vXrLEd28N5UfUyKZFltK1Jk0LbGjI45rZ8k0PLDhw4wM7M6u/yVefbhg0vuvcieTqk5jxVx7S3LrzFPv30U3v77Xe8uWFBzp9u3btVf1yh89Cdn6G/0zEUFha61w8/8lu3nszMDPcaAAAAANA0tMpshECKagmogNinTx9XkHzkt7+zxx77g7eEucKqCq25ubn2+c9/zhUsBw8eZK+/vsUVpn0q8Kqw3KPHGfbWW+/YM8+o35QTbrllgU2fNs39vXTs2MG99guq4m+rd+/edtbgwW6/NLz9zjuRgnDQ/Wmuzj77bBdw2Lz57ycFCoLYv7/I+p/Z3z4XKvgPyx1qL/7tJRsy5KwKwQ2lZa/evUJpPMgGDBjg+ph59NHV9vjade59CbLM/qIDNW7Lp2WHDg0dW2hdytM9//xnJJAST576AQ3VYKmcPkHOH3dcvao/LgIpAAAAANB8JE2YNLW8sKjYmwQSp6ZW6nNEjyiuzZOA4tGQ2wIAAAAAgEAKEjZnztWRPkJU20h9hpSUlLlHAkc/zaYuNOS2AAAAAACojEAKErZixT3WPzPTvVbHqmqecvc999ZLYOPee++2M/v3d6/re1sAAAAAAFRGIAUAAAAAACCgRn/8MQAAAAAAQHNBIAUAAAAAACAgAikAAAAAAAABEUgBAAAAAAAIKNmSvFdNUHZ2tq1Z/Yh7Kkxz0Rz3GQ1v3do/2oIFN3tTAAAAAIDmItnKvVcNRAEGFSL94aEHV9rSJT+07t27e0tUlJLSzlLapnhTDU+F3ej9rTxMnz7VW/KExt7nhqbg0eLFC11eKk2qCxBovoJMWkbLzpp5mfcOAAAAAADNQ6uMzKzbjx4r9Sbr34UXnm8K3mx65RXbuWuXJSeZ5eTk2LDhufbUU+u9pcIOHDhgr772uq1d94QdO3bMm9uwOnbsYCUlpW5fDx8+bD17ptmWLW/au/n5bt4rr/zd7aevKexzQ7vmmtmWMyTHCgsLXEBM6fLSSy9774bNmXO1XXjB+fbi314Opc06l47nnjvF3v9gp+3Zs8db6tRx5ZVfrjKdAAAAAABNW9KESVPLC4uKvcn65zd5mTfvRjcW1WbIGzfOFnz3v+zdd9+1BfNvtkmTJnjvmn2wc2eF5eXee++2pKQkKygocH8rGzdtsiVL7nCvRTUlrr/+29Y/M9NKS0ts3RNP2oyLLggtt9mWLbvLWyo41T6Zd/11tuKnP7P16//szQ2raZ/9v9U+an/z8/Ot+NAh97ryfqvmRt64Ma5mS3HxIXv88bW2es1j3rt179pr57ogx6pVD9VqOwqeFBUVRY7xuec3nJS+qoFSWlpq3/zWXDetv/n5fffatm3bbdH3vu+Ca0Ho7xSUGZaba6mpXby5Zmse+72tXPmgNxXOj7y82GmoGjHTpk219PSeblp5snrNH2zjxo1uWmrKC/98jvc8nHnZpRXSKehxAQAAAAAaV5PobHbz5r+7cUZGXzdWbQ4FKzTE0qVzF8vol+EKpApcqCCrwqhPhdf0nmmuMHr/rx6wz40f7wrE9SHoPqd26eL2V4XrgweLI/vtU8F90sQJLtijde3evdtmz76qyiZEdaVr11Q3bt+hvRvHS0GUmig4kL9tmzcV/pu9+wqsR48elhRHRz03fmeeS59Dhw+5dPSHl1/e5C1xIqgVKw0VRNG8lJQU9/cKfmRk9LOvf22Ot0S4Fo22pf3UMlJVXtR0Hl533dwK5+HQs3O8d04IclwAAAAAgMbXJAIpE77wBTd+7bU33Fg1A1Tjo3Ktj8ratWtrty76nrur/4MfLHHzdGdfFKhQDYBnnn3e3dHXupYtv9vKy+unU5ig+6xC+datW93r++77he3atdu99qlGgpoOLVt+l1vXosXfdwGXMWNGe0vUPdWemL/glnqr+ZCXl+e9Cgcwli/7kZunGkV+bZCgOnXu5Maq7aN89welvy83d+hJaajaJNFpqJoomnfzzd91f680WLb8J/Z/H1jpLWEu8KZl/G0tWXqHO3/c+RoV+9F5uPDWxW6ZIOfhL+9/wL0XzT+uG264KXJMGqKPCwAAAADQ+BolkKI7+Kp5oUFNI4YNy3UFxqKi/d4SwSgo4deGqFwrIjOznxvv2LHDjaU5FEr9Zh3TQwV91XzQUFZWZmlpaW5+fanPtOncuaP3yiwjM8PatG1rffv09ubE54UNL7rmMeq0VgEZNUtSsCJaVWmoZkXRaagATv62fNsfdc6pSU90sx4to9osPqXR3r37XNAjuhZNTeehAkY1nYf+ca1+9OFqjwsAAAAA0PgaJZCigq6aMWhQUEVNGO6488dWT5VFmh0FltTXiD/EW2ujqYmupaNaFqrhoX5GVLtDgYl46O/mfnue62dEfcyck5fnAg+VnwAUJA3bqZlXE3n8d9DjAgAAAAA0rkYJpKgfiRkXf8kNV109xxWuK9/JT9Thwx+5cVZWlhtLc7jDr6YkapYy44vh9PGHyp3t1rX6ThsdV/agQd5UuOmL+g0pLCy08jifwa1zRc1k1BxH548MHz7MjSVIGiqAk5090M7ofoY352Rapl+/cM0mURopIHPk8JHA+xw+D8sDnYc1HRcAAAAAoPG1yujfCI8/DnnyyafcuCrqPyMn5ywbMCDLxo0da6UlpfbJJ2VueseO990yF1xwvmsy8eSTJx6ZHP1IWT1Sd/LkSTbkrGw7vX17S0vrYZfPuswV4Gv72Fl/f155ZXNkP3w17bM/X9tW8ECvH37ktzZ+/DmWmZnhXkvrVq1s+vRpljNkiHXr2tX69u1jI0eMsOPHP6vwmOW6pKcmqZPVNm3b2BtvbPHmBqeOVc8771wbnJ3tHmusIENOzhAbNGhgZH0KQIwcMdx69e7lHik9Z/ZVoWXTbfWaNbZje8W0jGXRooU2btxYl24avvKVK1wHvq+9/nqk0+LWrVvXmIYpbdva6NGj7PzpU21Q9iAbG8oPrS96n7t162qjRo6wc8Yrb4eEzp+Z1q5duwr7XNX5XPk8nDQpdB4OGRzzPAxyXAAAAACAxpfcRFo2VHDllVdEmmSICuHR00Gp41D1X6FHzX7zG1+zrf94y3un7tXVPquJhx5DrKfZ6Akx+vsrrphpqanhJ+vUB3VmK0c/PurG8Ro1aqRrpqXmNKLOVTWt+T51rKsmXHqUsI6pR480d5w1dc5bWbuUlEizsOimYY8+usZbIlga+ssUFx92T9nx1xdNtUO0btWc8d+rzT4/8OtVJ52HqjUTLchxAQAAAAAaX9LEyVPLC/aHC9ItnTodVaFaj6GtryfUAAAAAACAlqtFB1LU5MR/DK2aSahPjJKSMrvp5gV13icLAAAAAABo+Rqls9mG4jc50aBmHvn57xFEAQAAAAAAtXZKNe0BAAAAAABIRIuukQIAAAAAAFCXCKQAAAAAAAAERCAFAAAAAAAgIAIpAAAAAAAAARFIAQAAAAAACCjZkpK8lwAAAAAAAIiFGikAAAAAAAABEUgBAAAAAAAIiEAKAAAAAABAQARSAAAAAAAAAiKQAgAAAAAAEBCBFAAAAAAAgIAIpAAAAAAAAAREIAUAAAAAACAgAikAAAAAAAABEUgBAAAAAAAIiEAKAAAAAABAQARSAAAAAAAAAko2S/JeAgAAAAAAIBZqpAAAAAAAAAREIAUAAAAAACAgAikAAAAAAAABEUgBAAAAAAAIiEAKmpzs7Gxbs/oRW7HiHm8OAAAAAABNQ+BAigq169b+MTI89OBKW7rkh9a9e3dvCSyYf7NLm6ZiwYKmtT/xSElpZyltU7ypippaOgMAAAAATh3J8Tz8uLj4kD33/AY3FBYW2LBhuXbbbYu9d4G6kZ+fb/MX3GILb+XcAgAAAAA0LUmTpkwv31d4wJusnt/M4oYbbrLy8nL3evHihZY3bpwr9GZm9rN511/n5qsgvPUfb9mMiy5wNQs2btpkS5bc4d4T1ZTIGzfGvafgzOOPr7XVax7z3jVXy2XOnKttWG6upaZ28eaarXns97Zy5YPudZBlgqppf/xjLygocMcr0cekGhKTJk1wrytT0GnZsru8qfCyeXlVb2v69KmB0zCWutqfeMRKQ+XVHf+zxL1WcKSoqMg131ny37fZ7t0f2oLv3hI6p8LrmDTxxH5/sHOnzZt3ozcV33HJtdfOtQsvON9WrXqoVscEAAAAAEBlrTL6D7j96NESb7J6F154vhs/+eR6N5Z27drZuLFjbdu2bfbqq6/bh3s+tH59+5nCLL16pdufnnjKDh0+bJ//3OfswMEDtmPH+5HC8ot/e9nWrltnXbp0senTp0Xel1sX3hIq3I+zfQX7bMuWN23nrl1u+Otfn7UDB8JBnyDLBBFkf3TsXTp3sQ7tO9irr70WOr5yG3r22dambRt7440toWUPujRQU5SePdNsxU9/Zq+8stkb/h7ZHz8QUN22Dh8+EigNaxJ0fxSI0rF9uOefLg17pqW5NA26HV9NaXjs2DHbv7/ILgptq2d6mm3Y8KKryXRa6zb2ve/9wI6G3pcDB8L7rf3UeXXo0KHQ+faUe0+CHpdv2rSp1rdPH9u+Y4fLJwAAAAAAEpU0cfL08oL9NQceqqqRoj5S1LxnzjXfcLUMRMv1z8y0JUvvtI0bN7raCN+/bZG99urrrqaI+lbZvXu3LVr8fbe8aF7+tvxIjYt7773bzuzf32Zc/CU3XRV/mYu/eElkf2qjqv15cNWvbdt72yL7o2NKDxXc5357njtOHdPKX/+qytodCpRUt99a74cffmiLvhfalrfLlY9dqkpDBR5effW1uGrb+AGO6vbnl//n5y4YdtXVc9y0aoksX/YjF1SJTo+aRNIw6rgqp6H4+6P167xRIGT9+j9771akPlAq10jx1ZTO0XRMqt0DAAAAAEBdiOupPaqVMX/+Ta5ArMK+CsMqpPpBlGgKAIjeu2HeTZEAgN8MR81Y/KG0tNTS0tIsKSncY8sLG14MzStxT25RwV5NNFQgjuYvs/rRh6tdJoiq9qesrKzC/sjefQWR46zqeIOIbGvaycdelU2bNrmxtqeAQrxNlmqSnt7TBUB8ysu9e/dZp86dvDnBVHVcfhpGU9BJ69d5o6ZK1QVR6hJBFAAAAABAXUq2OHqbVYFZNQo0KKiiGhl33Plj793gVJBWXyD+oAJ9NPVnodof65540ooPHbJz8vJcsGTWzMu8JYItE1RN+1OXGnJbDSnocZWWlXqvAAAAAABofpIjbTECUFMLNaVRkwo1B1ENg3hrZ6gjUjXt0DqiB9W4iG6io/WqBoaahvhNT4YPH+bGviDL1CTo/sSjupoxkW198eRt1afq9ke1Q/r16+dNhZdTAOTI4SPenGCCHpdqMqnJkmqJqNNe1VxJRJAaSLWppQQAAAAAQHVaZSbQ2Ww0FVhHjx5puUNzrWPHDq6j0TPO6GF79uzxlghr3apVqAA9zXJyhli3rl2tb98+NnLECDt+/LNIZ6GLFi20cePG2vjx57jhK1+5wlK7dLHXXn/dNm/+e+BlggiyPyeO/UTHp1de+WXXue1LL73szTHr2KmD6yR17JgxlpV1ptsvBXb8/WndunV4W0Oq3tZJaRiaV1UaBqV1xNqfbt272aiRI+yc8Xnu+C+fNdPatUux1WvWxNXZbCQNqzkuycvLs6uv+qpr0rN48W02adJE+/znzrFnn9vgOqP1l8nJOcsGDMhy+11aUmqffFLmpqP3p6Z09ukc+frX5kQ6BQYAAAAAIFF1Fki55prZdsXls1zhXVTQ7duvjz31VMXl3377Hfv0008tNzfXPv/5z7nlBg8eZK+/viUSMFBfG3p6TGZmhhtUaWbTK6/Yb37zSKTQHWSZIILsT9BAigr7KrSrE9yzBme7/frss+P29NN/ce/XtK2gaRhUdfvz5z+H90fBhV69eoXeG2QDBgxw/bU8+uhqe3ztOvd+UDUdlzrL/e6Cm+3jjz+27373v9zfbHtvu02ZPNGGDj07sj+33LIglK/T3N+LHwjS8Mhvf+fmSU3p7NO6Bw4c4AIs2kcAAAAAABKVNHHKtPKCwoPeJAAAAAAAAKoT11N7AAAAAAAATmUEUgAAAAAAAAIikAIAAAAAABAQgRQAAAAAAICACKQAAAAAAAAERCAFAAAAAAAgIAIpAAAAAAAAARFIAQAAAAAACCg5yXsBAAAAAACA2KiRAgAAAAAAEBCBFAAAAAAAgIAIpAAAAAAAAASUbFbuvQQAAAAAAEAs1EgBAAAAAAAIiEAKAAAAAABAQARSAAAAAAAAAiKQAgAAAAAAEBCBFAAAAAAAgEDM/h+to1qg415G8AAAAABJRU5ErkJggg==;" vertex="1" parent="1">
          <mxGeometry x="220" y="560" width="1106" height="708" as="geometry" />
        </mxCell>
        <mxCell id="Dg0W5qvxq99IlxNWHry--2" value="" style="rounded=0;whiteSpace=wrap;html=1;fillColor=none;strokeColor=#82b366;gradientColor=none;strokeWidth=5;" parent="1" vertex="1">
          <mxGeometry x="220" y="560" width="1104" height="270" as="geometry" />
        </mxCell>
        <mxCell id="Dg0W5qvxq99IlxNWHry--4" value="" style="rounded=0;whiteSpace=wrap;html=1;fillColor=none;strokeColor=#6c8ebf;strokeWidth=5;" parent="1" vertex="1">
          <mxGeometry x="220" y="835" width="1104" height="135" as="geometry" />
        </mxCell>
        <mxCell id="mOR1IFbn3fdF4vgqDeUs-2" value="" style="rounded=0;whiteSpace=wrap;html=1;fillColor=none;strokeColor=#9673a6;strokeWidth=5;" parent="1" vertex="1">
          <mxGeometry x="220" y="975" width="1080" height="115" as="geometry" />
        </mxCell>
        <mxCell id="Dg0W5qvxq99IlxNWHry--5" value="" style="rounded=0;whiteSpace=wrap;html=1;fillColor=none;strokeColor=#d6b656;strokeWidth=5;" parent="1" vertex="1">
          <mxGeometry x="220" y="1095" width="1080" height="130" as="geometry" />
        </mxCell>
      </root>
    </mxGraphModel>
  </diagram>
</mxfile>
